<svg width="115" height="75" viewBox="0 0 115 75" fill="none" xmlns="http://www.w3.org/2000/svg">
<path fill-rule="evenodd" clip-rule="evenodd" d="M48.005 52.2842C47.5567 49.3631 46.1555 46.7997 44.3059 44.5939C43.8576 44.0574 43.4092 43.4016 42.8487 42.9843C39.9343 40.5997 37.4682 37.5593 35.7868 34.1016C35.2263 32.9093 34.834 31.5978 34.1614 30.4651C33.8812 29.9882 33.6009 29.5113 33.1526 29.3324C32.1437 28.9747 30.9107 30.0478 30.126 30.5844C27.3237 32.3728 24.7455 34.5189 21.775 36.0689C18.9166 37.5593 15.834 38.5728 12.6393 38.692C10.1172 38.7516 7.53902 38.5728 5.07295 37.7978C4.34433 37.5593 -1.09224 35.0555 0.196847 33.9824C0.589177 33.6843 1.87826 33.7439 2.38268 33.5651C3.72782 33.0286 4.96085 32.1343 6.0818 31.2401C7.09064 30.4651 7.81926 29.3324 8.8281 28.5574C10.0051 27.6632 11.3502 27.0074 12.6393 26.2921C14.8812 25.0998 17.2352 24.1459 19.7012 23.7882C23.9048 23.2517 28.1644 23.1325 32.1998 21.8209C33.713 21.344 35.2263 20.9863 36.5714 20.0921C37.8605 19.1979 39.2056 18.4229 40.6629 17.7671C43.5213 16.4556 46.6039 15.7402 49.6865 16.0383C52.3767 16.3363 54.8428 17.4094 57.421 18.244C59.4387 18.8998 61.5684 19.3767 63.6982 19.6748C65.6038 19.9132 67.7336 20.3306 69.5832 19.9729C71.2085 19.6748 72.7218 18.7209 74.067 17.7671C74.2351 17.6479 74.4032 17.469 74.3472 17.2902C71.8251 16.5152 69.5832 14.6075 68.3502 12.1037C68.2941 11.9844 68.4062 11.8056 68.5183 11.8056C72.1614 11.8056 75.8044 11.746 79.4475 11.6864C79.6156 11.6864 79.6717 11.5075 79.6156 11.3883C79.4475 10.8518 79.3914 10.3152 79.3914 9.71907C79.3914 9.59984 79.5035 9.48061 79.6156 9.54022C81.6333 9.65945 83.651 9.65945 85.6127 9.12292C87.6304 8.52677 89.536 7.39408 90.713 5.54601C91.6657 4.05564 92.6186 1.61142 94.6362 2.80372C94.9165 2.98256 95.1967 3.10179 95.533 3.10179C95.5891 3.10179 95.6451 3.10179 95.7011 3.04218C95.7572 2.98256 95.7572 2.92295 95.7011 2.86333C95.6451 2.44603 95.5891 2.08834 95.533 1.67103C95.477 1.37296 95.477 1.01527 95.6451 0.776806C95.8132 0.59796 96.0935 0.59796 96.2616 0.657575C96.4858 0.717191 96.6539 0.896036 96.8221 1.01527C97.2705 1.31334 97.7188 1.61142 98.2233 1.79026C98.4475 1.84988 98.7277 1.90949 98.9519 1.73065C99.3442 1.37296 98.8398 -0.0578056 99.6805 0.00180951C99.7926 0.00180951 99.9047 0.0614246 99.9607 0.12104C100.297 0.3595 100.633 0.657575 100.914 0.896036C101.754 1.67103 102.651 2.44603 103.492 3.22102C104.108 3.81718 104.781 4.41333 105.341 5.00948C105.509 5.18832 105.79 5.42678 105.958 5.60563C106.126 5.72486 106.238 5.84409 106.406 5.96332C107.751 7.39408 109.152 8.76523 110.442 10.2556C111.899 11.9248 113.356 13.594 114.645 15.3825C115.654 16.8729 114.365 19.3171 112.627 19.5556C111.058 19.7344 109.825 18.3036 108.592 17.469C107.023 16.396 105.005 16.9921 103.099 17.0517C101.698 17.1113 99.6805 16.2767 98.6716 15.7402C97.943 15.3825 97.6068 15.8594 97.2705 16.6344C95.9814 19.4363 94.8044 22.2979 93.5714 25.1594C92.4504 27.8421 91.1613 30.4651 90.8811 33.4459C90.769 34.6978 90.9371 36.0093 91.5537 37.0824C92.7306 39.1689 95.2528 39.8247 97.3826 39.7651C102.371 39.6458 102.819 45.2497 102.707 49.3035C102.651 53.0592 102.763 57.7092 101.082 61.1073C100.97 61.3457 100.297 61.5246 100.185 61.4053C99.4563 60.5707 98.6716 59.7361 98.0551 58.7823C97.4386 57.9477 96.4298 57.0534 96.5419 55.8611C96.5979 55.3246 96.8781 54.8477 97.1023 54.3708C98.0551 52.4035 98.1672 50.0785 98.1672 47.9323C98.1112 46.3824 98.3914 44.117 96.4858 43.8189C94.8604 43.5804 93.2911 43.8189 91.7218 44.3554C91.1613 44.5343 89.0315 44.7131 89.4799 45.7266C89.592 45.965 89.8162 46.1439 89.9843 46.3227C91.3295 47.4554 92.8427 48.8862 92.7867 50.6746C92.7867 51.2112 92.6186 51.6881 92.4504 52.165C91.946 53.3573 90.9932 54.3112 89.9283 54.9669C88.8634 55.6227 87.7425 56.0996 86.5655 56.5765C85.3324 57.0535 84.0433 57.59 82.8103 58.0669C81.6894 58.4842 80.5124 58.7823 79.5035 58.0073C78.887 57.5304 74.123 53.0592 75.1319 52.165C75.2439 52.0458 75.4121 52.0458 75.5802 51.9862C76.8693 51.7477 78.831 51.2112 80.064 51.8669C80.8487 52.2842 80.6805 53.3573 81.6333 53.2977C82.3059 53.2977 83.1466 52.8208 83.8192 52.6419C84.828 52.3439 85.8369 51.9266 86.6776 51.2112C86.8457 51.0919 87.0138 50.9131 87.0138 50.7342C87.0138 50.4958 86.8457 50.3169 86.6215 50.1977C85.2203 49.2439 83.4829 49.0054 82.0256 48.1112C80.9607 47.4554 79.8959 46.74 78.887 45.965C78.0463 45.3093 77.4858 44.2362 76.2528 44.6535C73.6746 45.5477 71.5448 46.6208 68.7985 46.74C64.1466 47.0381 58.654 46.0247 54.5626 43.5804C53.7219 43.1035 52.9372 42.5074 51.9844 42.3881C51.8723 42.3881 51.7602 42.3881 51.6481 42.4478C51.48 42.567 51.536 42.8651 51.6481 43.1035C52.657 45.3093 54.1702 47.0977 55.9637 48.5881C58.0375 50.3169 60.5596 51.5092 63.1378 52.165C64.4829 52.4631 65.828 52.7015 67.1171 53.1785C70.0316 54.2515 72.4976 56.8746 72.946 60.0938C72.946 60.2727 73.0021 60.4515 72.89 60.5707C72.8339 60.69 72.6658 60.7496 72.5537 60.8092C70.9283 61.465 69.1348 61.4053 67.3974 61.4053C67.2292 61.4053 67.0611 61.4053 66.8929 61.3457C66.4445 61.1669 66.2764 60.5707 66.2204 60.0938C66.0522 59.0804 65.772 57.8284 64.8752 57.4708C64.4268 57.2919 63.9224 57.3515 63.4741 57.2919C62.5773 57.2323 61.7366 56.8746 60.8959 56.5765C59.0463 55.8015 57.3089 55.0265 55.3472 54.7285C55.2351 54.7285 55.067 54.7285 54.9549 54.7881C54.8988 54.8477 54.8988 54.9669 54.8988 55.0862C54.8428 57.3515 56.1879 59.6765 57.2528 61.5246C57.8693 62.5976 59.1024 63.3726 59.9991 64.1476C61.064 65.1015 62.1289 65.9957 63.1378 67.0092C65.0434 68.9169 66.8929 70.8841 68.5743 73.0303C69.7513 74.4611 67.9018 74.8784 66.8369 74.938C64.9873 75.0572 63.1378 74.9976 61.2322 74.8187C61.008 74.8187 60.7277 74.7591 60.5596 74.6399C60.3354 74.4611 60.2233 74.2226 60.1112 73.9841C59.6628 72.7918 59.7749 71.3611 59.2145 70.2284C58.654 69.1553 57.5891 68.6188 56.7484 67.9034C55.0109 66.413 53.3856 64.7438 51.6481 63.2534C50.303 62.0611 48.9018 60.8092 48.3413 59.0804C47.7248 56.815 48.3413 54.49 48.005 52.2842Z" fill="white"/>
</svg>
