<svg width="26" height="28" viewBox="0 0 26 28" fill="none" xmlns="http://www.w3.org/2000/svg">
<g clip-path="url(#clip0)">
<path d="M9 11.5C9 11.6326 8.94732 11.7598 8.85355 11.8536C8.75979 11.9473 8.63261 12 8.5 12C8.36739 12 8.24021 11.9473 8.14645 11.8536C8.05268 11.7598 8 11.6326 8 11.5V6C8 3.243 10.243 1 13 1C15.757 1 18 3.243 18 6V8H9V11.5ZM25.5 8H20V11.5C20 11.6326 19.9473 11.7598 19.8536 11.8536C19.7598 11.9473 19.6326 12 19.5 12C19.3674 12 19.2402 11.9473 19.1464 11.8536C19.0527 11.7598 19 11.6326 19 11.5V6C19 2.692 16.308 0 13 0C9.69 0 7 2.692 7 6V8H0.5C0.367392 8 0.240215 8.05268 0.146447 8.14645C0.0526784 8.24021 0 8.36739 0 8.5L0 27.5C0 27.6326 0.0526784 27.7598 0.146447 27.8536C0.240215 27.9473 0.367392 28 0.5 28H25.5C25.6326 28 25.7598 27.9473 25.8536 27.8536C25.9473 27.7598 26 27.6326 26 27.5V8.5C26 8.36739 25.9473 8.24021 25.8536 8.14645C25.7598 8.05268 25.6326 8 25.5 8Z" fill="white"/>
</g>
<defs>
<clipPath id="clip0">
<rect width="26" height="28" fill="white"/>
</clipPath>
</defs>
</svg>
