<svg width="20" height="18" viewBox="0 0 20 18" fill="none" xmlns="http://www.w3.org/2000/svg">
<path d="M18.3381 1.6512L18.3391 1.6522C20.5548 3.89416 20.5512 7.37356 18.3429 9.5975L18.3428 9.5977L10.0072 17.9962C10.0054 17.998 10.0043 17.9987 10.0041 17.9989L10.0034 17.9993C10.0031 17.9994 10.002 17.9998 10.0003 17.9998C9.9985 17.9998 9.9974 17.9994 9.9971 17.9993L9.9965 17.9989C9.9962 17.9987 9.9952 17.998 9.9934 17.9962L1.65778 9.5977L1.65763 9.5975C-0.551049 7.37313 -0.553851 3.89372 1.65707 1.65664L1.65852 1.65517C2.17452 1.1309 2.78791 0.71503 3.46319 0.43112C4.1383 0.14729 4.86217 0.00084 5.59324 0C6.97272 0.00018 8.30313 0.52231 9.3207 1.46501L10.0002 2.09455L10.6798 1.4651C11.6975 0.52248 13.028 0.00034 14.4075 0C15.1377 0.00063 15.8607 0.14661 16.535 0.42977C17.2096 0.71299 17.8224 1.12796 18.3381 1.6512Z" fill="white"/>
</svg>
