<svg class="sprite-icons" xmlns="http://www.w3.org/2000/svg">

    <symbol id="icon-send">
        <!-- width="16" height="8" viewBox="0 0 16 8" -->
        <path d="M12.01 3H0V5H12.01V8L16 4L12.01 0V3Z" fill="#3A3FB0"/>
    </symbol>

    <symbol id="icon-arrow">
        <!-- width="14" height="20" fill="none" viewBox="-2 -2 14 20" -->
        <path d="M1.035 1.035L8 8l-6.965 6.965" stroke="#015684" stroke-width="2"/>
    </symbol>

    <symbol id="icon-favorite">
        <!-- width="22" height="20" viewBox="0 0 22 20" -->
        <path d="M19.3381 2.6512L19.3391 2.6522C21.5548 4.89416 21.5512 8.37356 19.3429 10.5975L19.3428 10.5977L11.0072 18.9962C11.0054 18.998 11.0043 18.9987 11.0041 18.9989L11.0034 18.9993C11.0031 18.9994 11.002 18.9998 11.0003 18.9998C10.9985 18.9998 10.9974 18.9994 10.9971 18.9993L10.9965 18.9989C10.9962 18.9987 10.9952 18.998 10.9934 18.9962L2.65778 10.5977L2.65763 10.5975C0.448951 8.37313 0.446149 4.89372 2.65707 2.65664L2.65852 2.65517C3.17452 2.1309 3.78791 1.71503 4.46319 1.43112C5.1383 1.14729 5.86217 1.00084 6.59324 1C7.97272 1.00018 9.30313 1.52231 10.3207 2.46501L11.0002 3.09455L11.6798 2.4651C12.6975 1.52248 14.028 1.00034 15.4075 1C16.1377 1.00063 16.8607 1.14661 17.535 1.42977C18.2096 1.71299 18.8224 2.12796 19.3381 2.6512Z">
        </path>
    </symbol>

    <symbol id="rating__item-star">
        <!-- width="14" height="13" fill="none" viewBox="0 0 14 13" -->
        <path d="M7 0l1.572 4.837h5.085l-4.114 2.99 1.572 4.836L7 9.673l-4.114 2.99 1.571-4.837-4.114-2.99h5.085L7 0z">
        </path>
    </symbol>

</svg>