<svg class="sprite-icons" xmlns="http://www.w3.org/2000/svg">

    <symbol id="icon-cart" viewBox="0 0 20 24">
        <!-- width="20" height="24" -->
        <path clip-rule="evenodd" d="M19 6h-1.09l-1.805 16.118A2.143 2.143 0 0 1 14 24H6a2.14 2.14 0 0 1-2.103-1.884L2.12 6H1a1 1 0 1 1 0-2h5V3c0-1.654 1.346-3 3-3h2c1.654 0 3 1.346 3 3v1h5a1 1 0 1 1 0 2zm-7-3c0-.551-.448-1-1-1H9c-.552 0-1 .449-1 1v1h4V3zM4.132 6l1.753 15.896c.004.039.075.104.115.104h8c.04 0 .113-.065.117-.106L15.897 6H4.132z"></path>
    </symbol>

    <symbol id="icon-send">
        <!-- width="16" height="8" viewBox="0 0 16 8" -->
        <path d="M12.01 3H0V5H12.01V8L16 4L12.01 0V3Z" fill="#3A3FB0"/>
    </symbol>

    <symbol id="icon-arrow">
        <!-- width="14" height="20" fill="none" viewBox="-2 -2 14 20" -->
        <path d="M1.035 1.035L8 8l-6.965 6.965" stroke="#015684" stroke-width="2"/>
    </symbol>

    <symbol id="icon-favorite">
        <!-- width="22" height="20" viewBox="0 0 22 20" -->
        <path d="M19.3381 2.6512L19.3391 2.6522C21.5548 4.89416 21.5512 8.37356 19.3429 10.5975L19.3428 10.5977L11.0072 18.9962C11.0054 18.998 11.0043 18.9987 11.0041 18.9989L11.0034 18.9993C11.0031 18.9994 11.002 18.9998 11.0003 18.9998C10.9985 18.9998 10.9974 18.9994 10.9971 18.9993L10.9965 18.9989C10.9962 18.9987 10.9952 18.998 10.9934 18.9962L2.65778 10.5977L2.65763 10.5975C0.448951 8.37313 0.446149 4.89372 2.65707 2.65664L2.65852 2.65517C3.17452 2.1309 3.78791 1.71503 4.46319 1.43112C5.1383 1.14729 5.86217 1.00084 6.59324 1C7.97272 1.00018 9.30313 1.52231 10.3207 2.46501L11.0002 3.09455L11.6798 2.4651C12.6975 1.52248 14.028 1.00034 15.4075 1C16.1377 1.00063 16.8607 1.14661 17.535 1.42977C18.2096 1.71299 18.8224 2.12796 19.3381 2.6512Z">
        </path>
    </symbol>

    <symbol id="rating__item-star" viewBox="0 0 14 13">
        <!-- width="14" height="13" fill="none" viewBox="0 0 14 13" -->
        <path d="M7 0l1.572 4.837h5.085l-4.114 2.99 1.572 4.836L7 9.673l-4.114 2.99 1.571-4.837-4.114-2.99h5.085L7 0z">
        </path>
    </symbol>

    <symbol id="icon__arrow-slide" viewBox="0 0 8 14">
        <!-- width="8" height="14"  -->
        <path d="M6.976.696a.6.6 0 1 1 .848.849l-5.94 5.94a.6.6 0 0 1-.848-.849l5.94-5.94z"></path>
        <path d="M1.036 7.485a.6.6 0 0 1 .849-.849l5.94 5.94a.6.6 0 0 1-.85.848l-5.939-5.94z"></path>
    </symbol>

    <symbol id="icon__filter" viewBox="-2 -2 22 25">
        <!-- width="22" height="25" -->
        <path fill-rule="evenodd" clip-rule="evenodd" d="M.993 1.75c0-.332.127-.65.352-.884C1.57.632 1.875.5 2.193.5h14.4c.318 0 .624.132.849.366.225.235.351.552.351.884V5.5c0 .331-.126.65-.351.884l-5.649 5.883v4.483c0 .331-.126.65-.351.884l-2.4 2.5a1.186 1.186 0 01-.615.342 1.155 1.155 0 01-.693-.071 1.212 1.212 0 01-.539-.46 1.287 1.287 0 01-.202-.695v-6.982L1.345 6.383A1.277 1.277 0 01.993 5.5V1.75z" fill="#484DCD"/>
    </symbol>

    <symbol id="icon__box" viewBox="-2 -2 27 27">
        <!-- width="27" height="27" -->
        <path fill-rule="evenodd" clip-rule="evenodd" d="M7.716 14.59a.638.638 0 01-.646-.005l-5.143-3.087v5.64c0 .23.122.44.32.554l8.617 4.924v-9.83l-3.148 1.805zM15.93 14.496a.64.64 0 01-.636.006L12.14 12.73v9.889l8.612-4.834a.638.638 0 00.325-.556V11.46l-5.147 3.035z" />
        <path fill-rule="evenodd" clip-rule="evenodd" d="M15.599 13.21l7.396-4.361-2.641-1.499-7.517 4.307 2.762 1.552zM3.907 6.637l7.634 4.29 7.523-4.31-7.562-4.291-7.595 4.31zM15.6 0l-2.804 1.592L20.35 5.88 23 4.362 15.6 0zM7.406 13.297l2.844-1.63-7.64-4.295L0 8.854l7.406 4.443zM.005 4.443l2.603 1.463 7.601-4.314L7.407.002.005 4.441z" />
    </symbol>

    <symbol id="icon__banner-giraffe" viewBox="0 0 52 77">
        <path clip-rule="evenodd" d="M24.563 28.626c-1.007.963-2.145 2.319-3.415 2.931-1.095.525-2.408.306-3.547.306-1.007 0-2.057.307-3.065.35-4.203.22-7.662 4.025-9.063 7.788-.263.7-.482 1.443-.876 2.056-.963 1.575-2.933 2.318-3.809 3.98-.525.963-.57 2.057-.657 3.15-.043.832-.087 1.619-.131 2.45 0 .131 0 .306.088.438.13.175.394.175.569.175 1.882-.175 3.59-1.619 4.16-3.456.218-.788.525-2.8 1.4-3.15 1.752-.656 1.051 5.906 1.051 6.78-.044 1.4-.832 2.757-1.576 3.938-.307.481-.613.919-.744 1.487-.132.481-.132 1.006-.088 1.488a48.817 48.817 0 0 1-2.19 15.267c-.35 1.138-.743 2.231-.787 3.412 0 .22 0 .438.087.613.088.175.263.35.438.481 1.314 1.05 3.196 1.138 4.685.438 1.401-.657.088-2.931.131-4.156a32.36 32.36 0 0 1 .35-3.544c.307-2.187.395-4.462 1.095-6.562.175-.437.876-1.618 1.489-1.05.088.088.131.263.175.394.263 1.487.394 2.844.92 4.243.569 1.575 1.27 3.106 1.27 4.813 0 1.356-.438 2.668-.614 4.068-.043.525-.043 1.094.307 1.487.219.22.482.307.744.394.482.131 1.095.35 1.62.306.22 0 .438-.087.657-.13.219-.045.394-.088.657-.088.438.043.875.087 1.27-.044.788-.263.875-1.05.744-1.75-.22-1.181-.876-2.187-1.226-3.281-.876-2.493-1.489-5.25-1.927-7.83-.306-1.925-.744-4.113-.175-5.994.438-1.444 1.007-2.887 1.401-4.33.307-1.226.526-2.495.876-3.72.306-1.093.7-2.45 1.664-3.193.569-.437 1.4-.612 2.101-.569.657.044 1.358.132 1.883.569.57.481.963 1.313 1.051 2.056.394 4.069 0 8.093-.306 12.162l-.132 2.23c-.044 1.138.044 2.276.044 3.413 0 2.888-.263 5.775-.482 8.662 0 .263-.043.569.088.787a.811.811 0 0 0 .35.307c.263.131.57.175.832.175l2.146.13c.7.045 1.488.045 1.882-.48.263-.35.263-.831.175-1.269-.087-.437-.35-.787-.525-1.181-.788-1.662-1.226-3.806-1.138-5.643.087-1.97-.22-4.069.569-5.906.175-.35.35-.7.7-.875 1.007-.569 1.27.7 1.401 1.4.176 1.356.438 2.712.657 4.024.526 2.669 1.139 5.338 1.927 7.962.087.35.219.657.394.963.438.612 1.27.743 2.014.787.832.044 1.664 0 2.54-.087.13 0 .306-.044.437-.088.307-.175.438-.569.438-.918-.044-1.138-1.095-1.882-1.795-2.756-1.357-1.62-1.708-3.719-2.364-5.644-.745-2.231-.701-4.9-.876-7.262-.088-1.312-.175-2.668 0-3.98.131-1.094.525-2.188.657-3.282.35-2.625 1.663-4.943 1.751-7.656.044-1.006-.044-2.012-.394-2.974-.307-.919-.307-2.013-.438-2.931-.219-1.794-.131-3.544 0-5.337.131-1.663.482-3.369 1.357-4.769.263-.481.57-.919.832-1.4v.044c.088-.131.175-.306.263-.438a.916.916 0 0 1 .175-.262 37.66 37.66 0 0 0 2.452-5.206c.088-.262.175-.525.263-.744v.044c.175-.481.35-1.006.525-1.531.438-1.444.744-2.931 1.182-4.331.132-.394.263-.831.394-1.225.132-.35.263-.7.395-1.006v-.044c.13-.35.262-.7.437-1.05.394-.875.832-1.793 1.314-2.625.087-.13.131-.218.219-.35.175-.306.394-.612.569-.875.35-.524.482-1.268 1.445-1.093h.438c.043 0 .131 0 .175-.044h.087c.088 0 .132-.044.22-.044h.087c.044 0 .131 0 .175-.043h.306c.044 0 .088 0 .132.043.044 0 .044 0 .088.044l.262.131c.044.044.088.044.132.088.13.044.306.087.437.087.307 0 .613-.087.876-.218 0 0 .044 0 .044-.044.438-.219.788-.569.744-.963-.044-.7-.306-1.443-.744-1.968-.263-.306-.57-.875-.526-1.313.044-.35.438-.525.745-.7.963-.48 1.707-1.312 2.145-2.274.175-.394.307-.832.22-1.269 0-.044-.045-.088-.045-.131-.043-.044-.087-.044-.131-.088-.744-.175-1.445-.087-2.145.175-.263.088-1.664 1.006-1.664.306 0-.087.044-.175.044-.262.087-.306.043-.612-.176-.831-.175-.175-.438-.219-.7-.175a1.524 1.524 0 0 0-.657.306c-.219.175-.175.35-.306.569-.044.087-.132.131-.22.175-.35.175-.744.043-.963-.307-.087-.13-.13-.306-.218-.393C44.529.06 43.697.235 43.39.41c-.306.174-.35.568-.306.918 0 .131.087.263.087.438s-.13.35-.306.437c-.175.088-.394.088-.525-.087-.044-.044-.088-.132-.132-.22a1.545 1.545 0 0 0-.744-.655 3.43 3.43 0 0 0-1.095-.307c-.438-.043-.875-.087-1.27-.087-.087 0-.175 0-.262.044a.496.496 0 0 0-.132.35c-.087.7-.218 1.4.044 2.012.22.569.745 1.006 1.226 1.4.307.262.657.525 1.051.656.482.175.57.306.57.831 0 .7-.614 1.313-1.052 1.838-.131.131-.218.306-.35.437-.131.131-.263.306-.394.438-.131.175-.263.306-.394.48-.219.263-.438.57-.657.876-.788 1.137-1.576 2.318-2.364 3.456-.044.087-.131.175-.175.262a94.666 94.666 0 0 1-2.452 3.369c-.526.7-1.051 1.356-1.533 2.012-.306.35-.569.744-.875 1.094-.132.131-.22.306-.35.437a9.7 9.7 0 0 0-.526.7c-.263.394-.57.744-.832 1.138-.044.043-.087.087-.087.13-.176.22-.307.438-.482.657-.22.306-.482.656-.7.963a5.54 5.54 0 0 1-.482.568 81.241 81.241 0 0 1-3.328 3.631z"></path>
    </symbol>

    <symbol id="icon__banner-person" viewBox="0 0 68 62">
        <!-- width="68" height="62"  -->
        <path d="M67.9792 58.6519C67.8232 54.7312 66.887 50.7045 65.2746 46.6778C63.9744 43.4989 62.206 40.4259 59.9696 37.5118C58.9293 36.1343 57.7331 34.7567 56.4848 33.4851C55.8607 32.8493 55.2366 32.2135 54.5605 31.5777C54.3524 31.3658 54.0404 31.1539 53.7803 30.9419C53.3642 30.624 52.9481 30.2532 52.6881 29.9353C52.324 29.4584 51.9079 28.6637 52.0119 28.1868C52.168 27.71 52.9481 27.0742 53.4682 26.8093C54.8725 26.2795 56.1728 25.1138 57.005 23.5244C57.7851 22.0938 59.7615 18.2261 55.7567 16.0538C54.1964 15.2061 52.7921 15.1531 51.5959 15.9478C50.3996 16.6896 49.6194 18.0671 48.9953 19.1798C48.2152 20.6633 47.9551 22.3058 48.2152 23.7363C48.2672 24.2661 48.3192 25.1668 47.9551 25.3258C47.331 25.5377 46.6028 25.3788 45.8227 24.8489C45.5106 24.637 45.1465 24.3721 44.8345 24.0542C44.1063 23.3654 43.6902 22.4117 43.3782 21.67C42.2339 18.9149 41.7659 15.7889 42.0779 12.6629C42.2339 11.1794 42.494 10.1197 42.9621 9.27199C43.1181 8.95409 43.4302 8.47724 43.7423 8.3183C44.0543 8.15935 44.4704 8.05338 44.9905 8.05338C45.4586 8.05338 45.7707 7.84145 45.8747 7.62952C46.0307 7.47057 46.0827 7.25864 46.0827 6.99373C46.1347 6.51688 45.9787 6.09302 45.7187 5.72214C45.1986 5.08635 44.4704 5.03336 43.7423 4.87442C42.9101 4.66248 43.0661 3.92073 43.2221 3.12598C43.3262 2.70212 43.3262 2.33124 43.3782 1.90738C43.4302 1.27159 43.1181 0.741759 42.65 0.582811C42.494 0.529828 42.286 0.476845 42.1299 0.476845C41.8699 0.158948 41.4018 0.0529828 41.0897 0C40.8297 0 40.5696 0.0529828 40.3616 0.211931C39.9975 0.0529828 39.5294 0.105966 39.1133 0.370879C38.9573 0.476845 38.8533 0.635793 38.7492 0.741759C38.6452 0.847724 38.6452 0.95369 38.5932 1.05966C38.4892 1.05966 38.3852 1.11264 38.2811 1.16562C38.0211 1.32457 37.761 1.58948 37.605 1.90738C37.397 2.33124 37.397 2.7551 37.345 3.12598L37.449 4.18564C37.397 4.76845 37.3449 5.29828 37.449 5.93407C37.501 6.25197 37.553 6.56986 37.657 6.88776C37.761 7.15268 37.813 7.36461 37.8651 7.57654C37.8651 7.62952 37.813 7.78847 37.813 7.89443C37.813 7.94742 37.761 8.05338 37.761 8.10636C37.709 8.37128 37.605 8.63619 37.553 8.90111C37.2409 10.0667 36.9289 11.2853 36.7728 12.5569C36.6688 13.5636 36.6168 14.5703 36.5648 15.524C36.4088 21.3521 37.9171 26.6503 40.8297 30.889L40.9337 30.9949C41.1937 31.3128 41.4018 31.6307 41.5058 32.0016C41.7659 32.6374 41.4538 33.2732 40.7256 34.1209C39.6854 35.4455 38.4892 36.929 37.1369 38.2006C36.0447 39.2073 35.0565 40.055 33.7562 40.5318H33.7042C33.5482 40.4259 33.2881 39.949 33.1841 39.7371C33.0801 39.5781 33.0281 39.4192 32.924 39.3132C32.768 39.1013 32.664 38.8894 32.508 38.6774C32.3519 38.4655 32.1959 38.2536 31.9879 38.0416L31.9359 37.9887C31.7798 37.7767 31.5718 37.5648 31.3637 37.2999L31.3117 37.2469C31.1557 37.035 30.9476 36.876 30.7916 36.7171C30.7916 36.6641 30.7396 36.6641 30.6876 36.6111L30.2195 36.1343C30.0635 35.9753 29.8554 35.8164 29.6994 35.6574C29.6474 35.6044 29.5954 35.5514 29.5434 35.4985L29.1793 35.1806C28.9712 35.0216 28.8152 34.8627 28.6072 34.7037C28.4511 34.5448 28.2431 34.4388 28.0871 34.2799C27.879 34.1209 27.671 33.962 27.4629 33.803C27.2549 33.6441 27.0469 33.4851 26.8388 33.3262C26.6308 33.1672 26.4747 33.0613 26.2667 32.9023C25.9546 32.6904 25.6426 32.4784 25.4345 32.3195L25.1225 32.1076C25.0704 32.0546 25.0184 32.0546 24.9664 32.0016C24.8624 31.9486 24.7064 31.8426 24.5503 31.7897H24.4983C24.1863 31.6837 23.8222 31.6307 23.4581 31.6837C23.3021 31.6837 23.1981 31.7367 23.042 31.7367C22.886 31.7897 22.782 31.8426 22.626 31.8956C22.3659 32.0016 22.1579 32.1076 21.8978 32.2665C21.7938 32.3195 21.6378 32.4255 21.4297 32.5314L21.1697 32.6904C21.0136 32.7434 20.9096 32.8493 20.7536 32.9023L20.2335 33.1672C19.9214 33.3262 19.5573 33.4851 19.1412 33.697L16.9568 34.7567C16.6967 34.8627 16.4887 35.0216 16.2286 35.1276L16.1246 35.1806C15.8646 35.2865 15.6565 35.4455 15.3965 35.5514L15.1364 35.6574C14.9284 35.7634 14.7724 35.8693 14.6163 35.9223C14.5123 35.9753 14.3563 36.0813 14.2002 36.1343C14.0962 36.1872 13.9402 36.2932 13.7842 36.3992L13.6801 36.4522C13.5241 36.5581 13.3161 36.7171 13.16 36.823C12.6399 37.1409 12.1718 37.4588 11.6517 37.7237C11.2876 37.9357 10.9236 38.0946 10.5075 38.2536L10.2994 38.3065C10.0394 38.4125 9.83134 38.4655 9.57129 38.5715C9.46727 38.6244 9.31124 38.6244 9.20722 38.6774C8.94717 38.7304 8.73912 38.7834 8.53108 38.7834C8.47907 38.7834 8.42706 38.7834 8.37505 38.7834C8.27103 38.7834 8.115 38.7834 7.95896 38.7304C7.69891 38.6774 7.43886 38.5715 7.12679 38.4655C7.02277 38.4125 6.91875 38.3595 6.76272 38.3065C6.6587 38.2536 6.60669 38.2006 6.50267 38.1476C6.39865 38.0946 6.29462 38.0416 6.1906 37.9357C5.93055 37.7767 5.72251 37.5648 5.51447 37.4058C5.41044 37.2999 5.25441 37.1409 5.15039 37.035C4.99436 36.876 4.94235 36.7171 4.83833 36.6111C4.78632 36.5581 4.78632 36.4522 4.6823 36.3992C4.63029 36.2402 4.52626 36.1343 4.47425 36.0283C4.6823 35.9753 4.57827 35.8164 4.52626 35.7104C4.31822 35.4455 4.05817 35.2865 3.79812 35.1276C3.64208 35.0746 3.48605 34.9686 3.33002 34.9156C3.17399 34.8627 3.01796 34.8097 2.86193 34.8097C2.49785 34.8097 2.18579 34.9157 1.92573 35.0746C1.61367 35.2865 0.729491 36.1343 0.781501 38.0416V38.2536C0.781501 38.3065 0.781501 38.4125 0.781501 38.4655V38.5715C0.833512 38.8894 0.885522 39.1543 0.937533 39.5252V39.6311C0.989544 39.896 1.14558 40.2139 1.30161 40.5318C1.45764 40.7438 1.61367 41.0087 1.82171 41.2736C1.97774 41.4855 2.18579 41.6974 2.34182 41.9094C2.39383 41.9624 2.39383 41.9624 2.44584 42.0153C2.60187 42.1743 2.70589 42.2803 2.86193 42.4392C3.06997 42.5982 3.27801 42.7571 3.43404 42.916C3.59007 43.022 3.74611 43.181 3.90214 43.2869L4.52626 43.7638C4.73431 43.9227 4.89034 44.0287 4.99436 44.1347C5.04637 44.1876 5.09838 44.1876 5.09838 44.2406C5.2024 44.3466 5.25441 44.4525 5.35843 44.5585C5.46245 44.7175 5.56648 44.9294 5.6705 45.1413C5.77452 45.4062 5.87854 45.7241 5.98256 46.042L6.08658 46.4659C6.13859 46.6248 6.1906 46.7308 6.24261 46.8368C6.24261 46.8898 6.29462 46.9427 6.34663 46.9957C6.50267 47.2606 6.76272 47.5256 7.07478 47.6845C7.1788 47.7375 7.28283 47.7905 7.38685 47.8434C7.59489 47.9494 7.75092 48.0024 7.90695 48.0024C8.37505 48.1084 8.84314 48.0024 9.20722 47.7905L9.36325 47.6845C9.46727 47.5785 9.57129 47.5256 9.72732 47.4196L9.83134 47.3666C10.6635 46.8368 11.7037 46.254 12.6399 46.095C14.4603 45.8301 12.9 48.2143 12.4319 48.8501C12.0158 49.4329 11.5997 49.9628 11.1836 50.5986C10.9756 50.9165 10.7155 51.2343 10.4035 51.5522C10.2474 51.7112 10.0914 51.8172 9.88336 51.9761C9.72732 52.0821 9.57129 52.188 9.36325 52.294C9.05119 52.453 8.73912 52.6119 8.42706 52.7179C8.16701 52.8238 7.90695 52.8768 7.6469 52.9298C7.38685 52.9828 7.07478 53.0358 6.81473 53.0358C6.55468 53.0358 6.34663 53.0358 6.13859 53.0358C5.87854 53.0358 5.6705 53.0358 5.41044 52.9828C5.2024 52.9298 4.99436 52.9298 4.78632 52.8768C4.73431 52.8768 4.6823 52.8238 4.63029 52.8238C4.47425 52.7708 4.26621 52.7179 4.11018 52.6649C3.90214 52.6119 3.69409 52.5589 3.48605 52.5059L3.64208 52.4529L2.70589 52.4C1.82171 52.347 1.35362 52.241 0.62547 52.7708C-0.102679 53.3007 -0.154689 54.6252 0.261395 55.367C0.261395 55.42 0.313406 55.473 0.365417 55.526C0.521448 55.7379 0.62547 55.9498 0.833512 56.1088C1.04155 56.3207 1.2496 56.4796 1.45764 56.6386C1.56166 56.6916 1.61367 56.7446 1.71769 56.7975C1.7697 56.8505 1.87372 56.9035 1.92573 56.9035L2.02976 56.9565C2.08177 56.9565 2.08177 57.0095 2.13378 57.0095V57.0625L2.7579 57.3274C2.80991 57.3274 2.86193 57.3803 2.91394 57.3803L3.226 57.5393C3.27801 57.5393 3.33002 57.5923 3.38203 57.5923C3.48605 57.6453 3.59007 57.6453 3.64208 57.6982C3.79812 57.7512 3.90214 57.8042 4.05817 57.8572C4.26621 57.9102 4.47425 57.9632 4.73431 58.0161C4.89034 58.0691 4.99436 58.0691 5.15039 58.1221C5.25441 58.1221 5.35843 58.1751 5.46245 58.1751L6.08658 58.334C6.34663 58.387 6.55468 58.44 6.81473 58.493C7.02277 58.546 7.1788 58.599 7.38685 58.6519C7.59489 58.7049 7.85494 58.8109 8.115 58.9698C8.21902 59.0228 8.32304 59.0758 8.42706 59.1818C8.6351 59.3407 8.84314 59.4997 9.1032 59.7116L9.46727 60.0295C9.67531 60.1884 9.88336 60.4004 10.0914 60.5063C10.1954 60.6123 10.3515 60.6653 10.4555 60.7183C10.8716 60.9832 11.3397 61.1421 11.8598 61.0362C11.9118 61.0362 12.0158 60.9832 12.0158 60.9832C12.1198 60.9302 12.2238 60.9302 12.3279 60.8772C12.3799 60.8242 12.4319 60.8242 12.4839 60.7712C12.5879 60.7183 12.6919 60.6653 12.7439 60.5593C12.7959 60.5063 12.848 60.4534 12.9 60.4004C12.952 60.3474 13.056 60.2414 13.108 60.1355C13.16 60.0825 13.212 60.0295 13.212 59.9765C13.264 59.8705 13.3161 59.8176 13.3681 59.7116L13.4201 59.6056C13.5241 59.4467 13.6281 59.2347 13.7321 59.0228L13.7842 58.9169C13.8362 58.8109 13.8882 58.7049 13.9402 58.6519L13.9922 58.5989C14.0442 58.546 14.0442 58.44 14.0962 58.387C14.2002 58.1751 14.3563 58.0161 14.4603 57.8042C14.5643 57.6453 14.7203 57.4333 14.8244 57.2744C15.2925 56.6916 15.7085 56.2147 15.7085 56.2147C16.0206 55.8968 16.2807 55.526 16.5927 55.2081C17.0088 54.7312 17.4249 54.2014 17.841 53.6186C18.2571 53.0887 18.6211 52.5589 18.9852 52.0291C19.5053 51.2873 19.9734 50.5456 20.5455 49.6449L21.3257 48.3733C21.5337 48.0024 21.7938 47.3136 22.3659 47.4196C22.834 47.5256 23.1981 48.1613 23.6142 48.5852C23.7182 48.6912 23.8742 48.8501 23.9782 48.9031H24.0302C24.2383 49.0621 24.4463 49.221 24.6544 49.38C24.8104 49.4859 24.9664 49.6449 25.1225 49.7508L25.5385 50.0687C25.6946 50.2277 25.9026 50.3336 26.1107 50.4926C28.2951 52.0291 31.2077 53.1417 33.7042 53.5126C37.2409 53.9894 40.9857 53.0887 43.7423 51.0224C43.8983 50.9165 44.0023 50.8105 44.1583 50.7045C44.7305 50.2807 45.2506 49.9098 45.7707 49.274C46.4468 48.4792 47.0189 47.5785 47.643 46.5189C48.6833 44.7175 49.4634 42.7571 50.2956 40.9027L50.6597 40.055C50.7117 39.896 50.8157 39.843 50.8677 39.7901C51.1798 39.6841 52.116 39.8431 54.4564 41.7504L54.5084 41.8034C55.7047 42.7571 56.7969 43.9227 57.7331 45.1413C57.9932 45.5122 58.2532 45.8831 58.4613 46.254C58.6693 46.5719 58.8253 46.8368 59.0334 47.1547C59.7615 48.2143 60.4377 49.4329 61.0098 50.5986C61.4259 51.4463 61.5819 52.6649 61.0098 53.3537C60.8537 53.5126 60.2296 53.4066 59.8655 53.3537C59.7615 53.3537 59.6575 53.3007 59.6055 53.3007C58.7733 53.1417 58.1492 53.5656 57.9932 54.3073C57.8371 55.1551 58.4613 56.2147 59.9696 56.5856L60.1256 56.6386C60.2296 56.6916 60.3856 56.6916 60.4377 56.7446C60.4377 56.9035 60.4377 57.1684 60.3856 57.5393C60.2816 58.2811 60.0736 60.8242 61.1138 61.407C61.4779 61.619 61.8939 61.566 62.206 61.3541C62.4141 61.566 62.7781 61.7779 63.1942 61.8309C63.4543 61.8839 63.7143 61.7779 63.9224 61.619C64.2344 61.8839 64.5985 62.0428 65.0146 61.9898C65.1186 61.9898 65.1706 61.9369 65.2746 61.9369C65.6387 61.7779 65.8988 61.513 66.0028 61.1951C66.2628 61.2481 66.5749 61.3011 66.835 61.1951C68.0832 61.2481 68.0312 60.2414 67.9792 58.6519Z"></path>
    </symbol>

</svg>