<svg width="20" height="20" viewBox="0 0 20 20" fill="none" xmlns="http://www.w3.org/2000/svg">
<path d="M19.8997 5.1C19.7997 3.9 19.6997 3.3 19.4997 2.8C19.2997 2.2 18.9997 1.8 18.5997 1.4C18.1997 1 17.6997 0.7 17.1997 0.5C16.6997 0.3 16.0997 0.1 14.8997 0.1C13.5997 3.7998e-07 13.1997 0 9.99975 0C6.79975 0 6.39975 3.7998e-07 5.09975 0.1C3.89975 0.2 3.29975 0.3 2.79975 0.5C2.19975 0.7 1.79975 1 1.39975 1.4C0.999755 1.8 0.699755 2.3 0.499756 2.8C0.299756 3.3 0.0997562 3.9 0.0997562 5.1C-0.000243761 6.4 -0.000244141 6.8 -0.000244141 10C-0.000244141 13.2 -0.000243761 13.6 0.0997562 14.9C0.199756 16.1 0.299756 16.7 0.499756 17.2C0.699755 17.8 0.999755 18.2 1.39975 18.6C1.79975 19 2.29975 19.3 2.79975 19.5C3.29975 19.7 3.89975 19.9 5.09975 19.9C6.39975 20 6.79975 20 9.99975 20C13.1997 20 13.5997 20 14.8997 19.9C16.0997 19.8 16.6997 19.7 17.1997 19.5C17.7997 19.3 18.1997 19 18.5997 18.6C18.9997 18.2 19.2997 17.7 19.4997 17.2C19.6997 16.7 19.8997 16.1 19.8997 14.9C19.9997 13.6 19.9997 13.2 19.9997 10C19.9997 6.8 19.9997 6.4 19.8997 5.1ZM9.99975 16C6.69975 16 3.99975 13.3 3.99975 10C3.99975 6.7 6.69975 4 9.99975 4C13.2997 4 15.9997 6.7 15.9997 10C15.9997 13.3 13.2997 16 9.99975 16ZM16.4997 5C15.6997 5 14.9997 4.3 14.9997 3.5C14.9997 2.7 15.6997 2 16.4997 2C17.2997 2 17.9997 2.7 17.9997 3.5C17.9997 4.3 17.2997 5 16.4997 5Z" fill="white"/>
</svg>
