<svg width="20" height="20" viewBox="0 0 20 20" fill="none" xmlns="http://www.w3.org/2000/svg">
<path fill-rule="evenodd" clip-rule="evenodd" d="M7.27292 8.18182C7.77386 8.18182 8.18207 7.77409 8.18207 7.27273C8.18207 6.77136 7.77386 6.36364 7.27292 6.36364C6.77198 6.36364 6.36377 6.77136 6.36377 7.27273C6.36377 7.77409 6.77198 8.18182 7.27292 8.18182Z" fill="white"/>
<path fill-rule="evenodd" clip-rule="evenodd" d="M12.7275 11.8182C12.2266 11.8182 11.8184 12.2264 11.8184 12.7277C11.8184 13.2286 12.2266 13.6364 12.7275 13.6364C13.2284 13.6364 13.6366 13.2286 13.6366 12.7277C13.6366 12.2264 13.2284 11.8182 12.7275 11.8182Z" fill="white"/>
<path fill-rule="evenodd" clip-rule="evenodd" d="M14.4123 6.23045L6.23047 14.4123C6.14184 14.5009 6.02547 14.5455 5.90911 14.5455C5.79275 14.5455 5.67638 14.5009 5.58774 14.4123C5.41002 14.2345 5.41002 13.9473 5.58774 13.7695L13.7696 5.58773C13.9473 5.41 14.2346 5.41 14.4123 5.58773C14.59 5.76545 14.59 6.05273 14.4123 6.23045ZM12.7273 14.5455C11.7246 14.5455 10.9091 13.73 10.9091 12.7277C10.9091 11.725 11.7246 10.9091 12.7273 10.9091C13.73 10.9091 14.5455 11.725 14.5455 12.7277C14.5455 13.73 13.73 14.5455 12.7273 14.5455ZM7.27275 5.45455C8.27548 5.45455 9.09094 6.27 9.09094 7.27273C9.09094 8.27545 8.27548 9.09091 7.27275 9.09091C6.27002 9.09091 5.45456 8.27545 5.45456 7.27273C5.45456 6.27 6.27002 5.45455 7.27275 5.45455ZM20.0001 10C20.0001 9.64909 19.7151 9.34136 19.321 8.915C19.1346 8.71364 18.8228 8.37682 18.7873 8.25591C18.7723 8.12227 18.9314 7.69136 19.0264 7.43364C19.2278 6.89045 19.3728 6.49773 19.2391 6.17318C19.1046 5.84909 18.7037 5.66409 18.1964 5.43091C17.9473 5.31591 17.5305 5.12409 17.4514 5.02636C17.3864 4.90864 17.3687 4.45 17.3582 4.17591C17.3364 3.61818 17.3196 3.17773 17.071 2.92864C16.8232 2.68091 16.4041 2.66455 15.8241 2.64182C15.55 2.63136 15.0914 2.61318 14.9805 2.55318C14.876 2.46955 14.6841 2.05318 14.5696 1.80409C14.3355 1.29636 14.151 0.895455 13.826 0.760455C13.5019 0.627273 13.1096 0.772273 12.5669 0.973182C12.3087 1.06818 11.8737 1.22864 11.7519 1.21364C11.6228 1.17682 11.2855 0.865 11.0846 0.678636C10.6741 0.299545 10.3509 0 10 0C9.64958 0 9.34139 0.284545 8.91503 0.679091C8.71412 0.865 8.3773 1.17682 8.25548 1.21227C8.13184 1.22682 7.69139 1.06818 7.43411 0.973182C6.89048 0.771818 6.49775 0.626818 6.1732 0.760909C5.84865 0.895455 5.66456 1.29636 5.43047 1.80364C5.31593 2.05273 5.12411 2.46955 5.02638 2.54864C4.90865 2.61318 4.45001 2.63136 4.17638 2.64182C3.59592 2.66455 3.17683 2.68091 2.92819 2.92909C2.68092 3.17773 2.66364 3.61818 2.64228 4.17591C2.63137 4.45 2.61364 4.90864 2.55319 5.01955C2.46955 5.12409 2.05273 5.31591 1.80364 5.43091C1.29637 5.66409 0.895457 5.84909 0.760457 6.17409C0.62682 6.49773 0.772275 6.89045 0.973639 7.43409C1.06864 7.69136 1.22773 8.12227 1.21455 8.24773C1.17728 8.37682 0.865457 8.71364 0.679093 8.915C0.285001 9.34136 0 9.64909 0 10C0 10.3509 0.285001 10.6586 0.679093 11.085C0.865457 11.2864 1.17728 11.6232 1.21273 11.7441C1.22773 11.8777 1.06864 12.3086 0.973639 12.5659C0.772275 13.1095 0.62682 13.5023 0.760911 13.8268C0.895457 14.1509 1.29637 14.3359 1.80364 14.5691C2.05273 14.6841 2.46955 14.8759 2.54864 14.9736C2.61364 15.0914 2.63137 15.55 2.64228 15.8241C2.66455 16.4041 2.68092 16.8227 2.9291 17.0714C3.17683 17.3191 3.59592 17.3355 4.17638 17.3577C4.45001 17.3686 4.90865 17.3868 5.01956 17.4468C5.12411 17.5305 5.31593 17.9473 5.43047 18.1964C5.66456 18.7036 5.84865 19.1045 6.17456 19.2395C6.4982 19.3736 6.89093 19.2277 7.43411 19.0268C7.69093 18.9314 8.1023 18.7705 8.24821 18.7855C8.37684 18.8227 8.71366 19.1345 8.91503 19.3209C9.34139 19.715 9.64958 20 10 20C10.3509 20 10.6587 19.7155 11.0846 19.3209C11.2859 19.1345 11.6228 18.8227 11.7441 18.7868C11.8859 18.77 12.3087 18.9314 12.5669 19.0268C13.11 19.2277 13.5023 19.3732 13.8264 19.2391C14.151 19.1045 14.3355 18.7036 14.5696 18.1959C14.6841 17.9468 14.876 17.5305 14.9737 17.4514C15.0914 17.3868 15.55 17.3686 15.8241 17.3577C16.4041 17.3355 16.8232 17.3191 17.0719 17.0709C17.3196 16.8227 17.3355 16.4041 17.3582 15.8241C17.3687 15.55 17.3864 15.0914 17.4469 14.9805C17.5305 14.8759 17.9473 14.6841 18.1964 14.5691C18.7037 14.3359 19.1046 14.1509 19.2396 13.8259C19.3728 13.5023 19.2278 13.1095 19.0264 12.5664C18.9314 12.3086 18.7723 11.8777 18.7855 11.7523C18.8228 11.6232 19.1346 11.2864 19.321 11.085C19.7151 10.6586 20.0001 10.3509 20.0001 10Z" fill="white"/>
</svg>
