<svg width="107" height="87" viewBox="0 0 107 87" fill="none" xmlns="http://www.w3.org/2000/svg"><path d="M47.59 62.93l6.216 14.38h.102l6.318-14.38h5.605L54.722 86.796h-1.936L41.679 62.93h5.91zM68.378 62.93h5.401v23.764h-5.4V62.93zM77.651 74.76c0-7.24 5.503-12.238 12.331-12.238 2.14 0 4.484.51 6.318 1.428l.51 5.813c-2.038-1.53-4.178-2.55-6.624-2.55-4.586 0-6.93 3.57-6.93 7.446 0 3.978 2.344 7.547 7.032 7.547 2.65 0 5.4-1.122 7.235-2.448l-1.121 5.508C94.568 86.49 92.428 87 89.982 87c-7.031 0-12.33-4.896-12.33-12.24zM101.599 62.93H107v23.764h-5.401V62.93z" fill="#fff"/><path d="M103.943 52.934c-.102-1.53-.815-2.957-1.732-4.181-1.121-1.53-2.752-2.754-4.382-3.57-1.835-.816-3.873-1.122-5.91-1.326-.816-.102-4.485-.612-6.115-1.53-1.936-1.224-2.752-3.162-2.242-5.508.102-.611.611-2.957.204-6.527-.102-1.122-.917-4.488.204-6.63.51-1.02 2.242-4.181 1.834-6.935-.102-.714-.204-1.428-.408-2.142-.713-2.142-.51-3.264-.51-3.264.103-1.734.408-5.201-1.018-9.69C83.562.409 82.747 0 82.033 0c-.611 0-1.222.408-1.222.408-1.223.918-4.28 3.366-6.217 6.935-1.324-.203-2.853-.305-3.668-.101-1.121-1.326-3.77-4.386-5.503-6.426C64.913.204 64.302 0 63.894 0c-1.12 0-1.732 1.02-1.732 1.02-2.446 4.386-1.223 9.69-.611 11.831 0 0 .203.612.101.714-.305.918-.713 1.836-.815 2.856-.204 1.632.408 3.06.713 4.692.204 1.02.204 2.141-.101 3.161-.204.612-.612 1.122-1.121 1.53-.204.204-.51.306-.816.408-.203.102-.51.204-.713.714-.102.51.408.918.408.918 2.65 2.856 4.585 6.528 5.503 8.364.203.306.611 1.325.611 1.325.204.408.306.816.102 1.326-.102.306-.408.408-.713.51-.612.102-1.223-.51-1.63-1.02-.205-.204-.307-.408-.408-.714-.612-1.02-1.325-2.141-1.937-3.161-.305-.51-.917-1.326-1.528-.918-.816.51-.306 1.53 0 2.142.407.917 1.732 3.365 2.445 4.59.306.51 1.529 2.447.612 2.957-1.223.714-1.936-.918-2.344-1.632-.204-.306-1.834-3.876-2.038-4.182-.306-.611-.815-1.631-1.63-1.53-.918.204-.408 1.632-.102 2.142 0 .102 1.732 4.182 2.242 5.1.305.612 1.324 2.448.61 3.162-1.018 1.02-2.14-.918-2.445-1.632 0 0-2.446-6.018-2.65-6.426-.101-.306-.305-.816-.713-1.02-.204-.51-.713-.51-.917-.101-.204.305-.204.611-.102.917.102.306 2.344 6.222 2.446 6.732.102.306.204.714.102 1.122-.204.714-1.325.714-1.733.204-.61-.612-2.853-5.814-3.159-6.834-.305-.816-.713-1.734-1.12-2.448a4.345 4.345 0 0 0-1.223-1.122c-.51-.305-1.02-.305-1.63-.203-.714.203-3.364 1.02-4.179 1.121-.51.102-1.12.102-1.63-.102-.51-.102-1.121-.51-1.223-1.02-.102-.917 1.019-.917 1.019-.917 1.12-.102 2.65-.816 3.974-1.734.102-.102 2.548-1.836 1.63-6.12-.917-4.284-4.177-7.853-9.069-9.18-2.038-.611-4.28-.917-6.726-.917-9.884 0-17.527 5.916-22.215 14.279-3.567 6.323-3.26 16.829-1.936 24.07.408 2.346 1.223 5.202 2.242 8.058H0v23.662H7.95c6.42 0 10.394-3.162 12.024-7.445l.51.407c.815.51 1.732 1.02 2.751 1.428l-2.547 5.61h5.604l1.631-4.08c.306.102.611.102.917.204 2.038.306 5.91.306 8.356-.204l1.63 4.08h5.605l-2.649-6.017c1.121-.715 2.14-1.632 2.038-2.856-.102-2.754-2.344-3.264-4.79-3.162l-5.4-11.933h-2.14l-4.79 10.709a20.546 20.546 0 0 1-3.26-1.836l-1.631-1.224c-1.325-1.122-2.548-2.55-3.465-3.978-3.16-5.1-4.586-13.973-4.28-17.134 1.63 1.938 5.4 4.793 9.783 4.793H34.24s3.872 0 3.872-2.447c0-.409-.102-.919-.203-1.327-.204-.407-1.325-2.345 0-2.345 1.936 0 3.159 2.142 3.872 2.652 0 0 2.548 3.365 12.33 3.365h39.743c3.465 0 2.65 2.142 2.344 3.978-.306 1.632-.102 3.06 1.834 3.468 1.427.204 2.854-.204 3.873-1.224.917-.918 1.325-2.142 1.732-3.264.306-1.224.51-2.652.306-3.978zm-19.973-35.8c.203 1.429-.714 3.57-1.325 5.1-.306-.51-.612-1.02-1.02-1.427.612-.714 1.02-1.53 1.02-2.55 0-.204 0-.408-.102-.612l1.427-.51zM81.83 1.939s.102-.102.203-.102c0 0 0 .102.102.102 1.223 4.08 1.02 7.343.917 8.975-.102.408-.102 1.53.306 3.264l-1.834 1.326a3.662 3.662 0 0 0-1.02-.714c.306-1.224 1.427-6.936-.61-11.22.815-.713 1.528-1.325 1.936-1.631zM80.3 18.358c.204 0 .408 0 .611-.101 0 1.122-.917 1.938-2.038 1.938a2.045 2.045 0 0 1-2.038-2.04c0-1.122.917-2.04 2.038-2.04-.102.204-.102.408-.102.612-.102.918.612 1.632 1.529 1.632zM76.225 8.262c.51-1.02 1.223-1.937 1.834-2.753.917 2.753 1.834 6.527 1.223 8.975h-.51c-.407 0-.815.102-1.222.204 0-.714-.204-3.162-1.733-5.712l.408-.714zm-12.33-6.323l.713.714c1.63 2.04 3.974 4.691 4.993 5.813l.713.918s4.178 4.284 6.828 5.508c-.51.306-.917.612-1.325 1.122-1.019-.612-3.77-2.244-6.522-2.856-1.732-.408-3.974-.612-5.91-.816-.612-2.142-1.529-6.731.51-10.403zm11.209 16.42c-5.401.409-9.07 1.939-11.515 3.366 0-.305-.102-.611-.102-1.02-.102-.51-.204-.917-.306-1.325-.204-1.02-.408-1.938-.306-2.754.102-.612.306-1.224.51-1.938 7.439.102 11.21 2.04 11.82 2.448-.101.306-.101.612-.101 1.02v.204zm-9.477 14.28c-1.223-1.122-2.446-2.448-2.854-4.08-.51-1.734.102-3.468 1.529-4.59 1.019-.816 2.548-1.122 3.77-.51.612.306 1.223 1.02 1.937.408.407-.306.407-.918.51-1.325.814-2.652 4.585-3.06 6.215-1.122 2.344 2.651 1.427 7.241.102 9.995a16.123 16.123 0 0 1-3.159 4.487c-3.057-.102-5.91-1.223-8.05-3.263zm-4.28 12.443h.51c.509 0 1.018-.102 1.528-.408a2.136 2.136 0 0 0 1.12-1.53c.205-.714.103-1.326-.203-2.04h.713c.917-.102 1.733-.612 2.14-1.53.306-.612.51-1.53-.102-2.855-.102-.205-.203-.51-.407-.919 1.936 1.123 4.28 1.836 6.624 2.04-.102.51-.102 1.02.102 1.53 0 .102.101.204.101.408-1.12 0-2.14.408-2.853 1.02-.815.714-1.325 1.734-1.427 2.856h-.407c-.306 0-.714 0-1.02.102-1.528.306-2.853 1.53-3.26 2.958v.102a7.774 7.774 0 0 0-2.752-.51h-.51c.103-.408.103-.816.103-1.224zM37.603 33.658c-.51.612-.713 1.326-.51 2.04.102.713.612 1.428 1.325 1.937l.204.204c.102 0 .204.102.306.102.305.204.611.306.815.51l.306.306c.305.51.203.918 0 1.224-.306-.306-.51-.51-1.02-.714a6.393 6.393 0 0 0-1.936-.306c-1.528.102-3.057-.306-3.872-1.632-.917-1.53-.713-3.671.611-4.895l.918-.612.917-.306c.815-.102 2.343.102 3.26 1.122-.407.306-.916.51-1.324 1.02zm5.095-2.346c-.815.612-1.528.918-2.14 1.224-.407-.612-1.019-1.428-1.63-1.632 0 0 1.426-.306 2.853-1.224.713-.51 1.63-.51 1.936 0 .204.612-.917 1.53-1.019 1.632zm-6.42-11.933c1.63.51 3.057 1.326 4.178 2.345 1.63 1.428 2.548 3.264 3.057 4.794 0 .204.102.408.102.51 0 .204.102.408.102.612-.815-.306-1.426-.102-1.426-.102l-.612.306c-1.63 1.122-4.688 2.142-7.745 1.02a13.304 13.304 0 0 1-3.668-2.142c-1.529-1.326-2.854-3.162-3.873-5.508.714-.407 4.688-3.467 9.885-1.835zM8.968 31.822c1.834-3.264 4.483-3.774 4.483-3.774-.101-2.04 1.427-3.774 2.344-4.59.204-.204.408-.306.612-.51-.306.51-.612 1.326-.714 2.244a8.149 8.149 0 0 0 .408 4.284c-2.853.51-5.503 1.53-7.54 3.366.101-.306.203-.714.407-1.02zm19.667 44.367c.714.204 1.427.408 2.038.51l1.733-5.202h.204l1.834 5.508c.713 0 1.426-.102 2.242-.204 1.019-.102 2.038-.204 2.955-.204 2.344 0 2.344.612 2.344 1.326 0 .306-.51 1.02-2.853 2.141-1.733.816-3.873 1.224-6.319 1.224-3.464 0-6.623-.816-9.273-2.141h-.102c-3.363-1.632-6.114-3.978-8.05-6.018-.204-.306-.51-.51-.714-.816.204.816.408 1.632.408 2.55 0 4.08-2.548 7.14-7.337 7.14H5.4v-14.28h2.446c2.038 0 3.566.51 4.79 1.428-1.122-1.836-2.14-3.977-2.956-6.12 0 0 .204.205.408.613l.101.102a29.668 29.668 0 0 0 2.446 2.753c3.057 2.958 8.56 7.548 16 9.69zm-4.076-24.07c-6.726-.51-8.152-7.548-8.152-7.548-.816.408-2.242 2.04-2.242 2.04.204-1.632 1.019-5.1 4.076-7.038.204 3.774 2.038 6.936 2.14 7.038 0 0 1.02 1.632 1.732 2.346l.51-1.224c1.325 2.856 3.057 4.283 3.26 4.385l.103.102h-1.427v-.102zm2.242-6.63s-.306 3.06.204 5.1c0 0-3.669-2.958-4.076-8.976 0 0-1.223 2.04-.917 3.978 0 0-2.65-4.488-1.733-8.976-5.197 1.326-7.031 5.406-7.745 8.16-.102.204-.102.51-.204.714-.101.714-.203 1.224-.203 1.632-.102 1.122-.102 1.938-.102 1.938-.204 3.467 1.223 12.749 4.687 18.256-18.546-16.012-5.299-29.374-5.299-29.374-2.343.408-4.891 3.57-4.891 3.57 0-.714.102-1.326.204-2.04 1.426-7.445 9.477-8.261 12.228-8.363-3.26-4.284-.611-7.956-.611-7.956.204 1.938 1.732 2.652 1.732 2.652-.102-6.833 6.013-7.14 6.013-7.14s-2.344 1.429-1.427 3.774c.611 1.632 3.16 4.08 3.465 7.344 5.503-1.632 5.604 1.53 5.604 1.53-.815-.306-1.528.612-1.936 1.122-.407.51-.917 1.224-2.14 1.734-.203.102-.407.204-.713.204 1.325.612 2.446 1.836 2.548 4.283.203 5.814-.408 11.526 4.483 13.157 0 0-7.235 2.04-9.171-6.323zm23.132 4.692c-.611 1.02-1.426 1.428-3.464 1.02-.306-.102-.714-.205-1.02-.409-1.324-.51-2.343-1.427-3.362-2.55C40.966 47.02 39.64 46 37.909 46c-.917 0-1.63.408-2.14 1.122-.306.51-.408 1.122-.408 1.734 0 .306-.102.51-.408.306-.203-.204-.203-.408-.305-.612-.51-.816-.816-1.734-1.02-2.754-.203-1.326 0-2.856.816-3.978 1.223-1.53 3.057-1.632 4.688-.714.509.306 1.019.51 1.63.204.408-.204.713-.612.815-1.224.102-.408.408-1.428 1.733-1.938.101-.102.305-.102.407-.204.102 0 .306-.102.51-.102.713-.204 1.528-.204 2.344.204 1.324.612 2.241 2.04 2.853 4.284 1.426 5.508 1.12 6.834.51 7.854zm24.865-5.406c1.02.102 4.382.51 4.688 2.448.204 1.02-.102 2.04-.917 2.754-.918.816-2.14.918-3.567.51-1.223-.408-2.242-.918-3.465-1.734l-.102-.102c-.815-.51-2.14-1.428-2.955-1.224-.204 0-.408.204-.408.306.102.102.51.204.816.306.713.204 1.732.51 2.14 1.326.203.306.305.816 0 1.631-.408 1.122-1.325 1.326-2.14 1.326a4.72 4.72 0 0 1-1.427-.204c-1.325-.306-2.446-.714-3.465-1.326-1.12-.611-2.038-.917-3.057-.713-.306.102-.611.203-.917.407-.102.103-.204.103-.306.205-.713.407-1.528.611-2.14.816-1.12.305-3.363.713-5.4.102-.51-.102-.816-.715-.714-1.224.102-.51.713-.816 1.223-.714 1.12.306 2.751.306 4.28-.102a5.324 5.324 0 0 0 1.63-.612c.102-.102.204-.102.306-.204.408-.204.917-.51 1.529-.612 1.732-.408 3.159.204 4.381.816.918.51 1.835.816 3.058 1.122.917.203 1.222.203 1.222.102v-.102c-.203-.102-.61-.204-.917-.306-.611-.204-1.223-.408-1.63-.816-.51-.51-.713-1.224-.408-1.938.204-.816 1.02-1.53 1.936-1.734 1.63-.306 3.261.714 4.484 1.53l.102.102c1.121.714 2.038 1.122 3.057 1.53.714.204 1.223.204 1.63-.102.205-.204.306-.51.205-.816-.204-.306-1.529-.816-2.956-.918-1.732-.204-3.464-1.02-3.566-2.754a2.026 2.026 0 0 1 .713-1.836c.611-.51 1.63-.714 2.751-.51.714.204 1.427.408 2.14.714.408.204.816.306 1.223.408.51.204 1.121.204 1.325 0 .102 0 .204-.102.204-.306.102-.306-.713-.714-1.529-1.122l-.611-.306c-.51-.306-1.834-1.02-2.14-2.244-.102-.408-.102-1.122.407-1.836.918-1.325 3.567-.611 3.567-.611.102 0 .204.102.306.102.204.101.407.101.51.101-.103-.203-.612-.407-.816-.611l-.204-.102c-.102-.102-.203-.102-.407-.204-.612-.306-1.835-.816-1.63-2.346.203-1.428 1.732-1.836 2.649-2.04.204 0 .407-.102.51-.102.101 0 .203-.102.305-.102 0-.102-.102-.102-.306-.306-.305-.204-.713-.408-1.019-.816-.611-.816-.611-2.142.204-2.856.102-.102.204-.204.408-.306l.102-.102-.204-.204c-.306-.306-.917-.918-.714-1.938 0-.306.102-.51.204-.714.102-.204.102-.306.102-.51v-.102c-.407-.306-.611-.816-.407-1.224.203-.51.815-.713 1.324-.51.714.306 1.223 1.224 1.02 2.142 0 .306-.103.612-.204.816-.102.204-.102.306-.102.408 0 .102.102.204.203.306.306.306.714.816.714 1.632 0 .918-.714 1.428-1.02 1.632-.101 0-.101.102-.203.102 0 0 0 .204.102.204.102.102.204.102.306.204.407.204.917.51 1.222 1.224.306.714.204 1.224 0 1.632-.203.51-.713.918-1.426 1.122-.204.102-.408.102-.714.204-.305.102-.917.204-1.12.408.101.102.305.204.509.306l.611.306.204.102c.612.408 2.446 1.53 1.529 3.263-.816 1.53-2.242 1.02-2.956.816-.101 0-.203-.102-.305-.102-.408-.102-1.223-.204-1.529-.102v.102c.102.204.408.612 1.02.918.101.102.305.102.509.204 1.019.408 3.26 1.428 2.65 3.468-.204.714-.612 1.224-1.224 1.53-1.019.51-2.241.306-2.853.102a7.07 7.07 0 0 1-1.325-.51c-.611-.204-1.222-.51-1.834-.612-.611-.102-.917 0-1.019 0v.204c.306.918 1.223 1.326 2.038 1.428zm5.707 7.343c1.325-3.161 2.038-6.425 2.547-9.485.408.51.918.918 1.529 1.224.51.306 1.223.612 2.038.816 1.223 5.304 2.853 7.445 2.853 7.445h-8.967zM101.7 56.3l-.102.204c-.306.918-.611 1.836-1.121 2.346s-1.426 1.02-2.14.51c-.407-.306-.51-.612-.407-1.02 0-.204.101-.306.101-.51.306-1.224 1.02-3.06-.102-4.386-.61-.714-1.528-1.02-2.75-1.224-.205 0-.409-.102-.714-.102-3.77 0-5.401-5.201-5.91-6.935 1.12.204 2.14.408 3.158.51 2.038.204 3.77.51 5.3 1.224 1.426.612 2.75 1.734 3.668 2.958a6.04 6.04 0 0 1 1.325 3.263 5.635 5.635 0 0 1-.306 3.162zM9.681 62.93c0 .102 0 .102 0 0z" fill="#fff"/><path d="M38.622 26.824c1.427-1.632 1.223-4.182-.408-5.61-1.63-1.427-4.178-1.223-5.604.409-1.427 1.631-1.223 4.181.407 5.61 1.63 1.427 4.178 1.325 5.605-.409zm-4.484-3.876c.714-.816 1.936-.918 2.854-.204.815.714.917 1.938.203 2.856-.713.816-1.936.918-2.853.204-.815-.714-.917-2.04-.204-2.856z" fill="#fff"/></svg>