<?xml version="1.0" encoding="utf-8"?><svg width="350" height="303" viewBox="0 0 350 303" xmlns="http://www.w3.org/2000/svg" xmlns:xlink="http://www.w3.org/1999/xlink"><svg width="114" height="104" fill="none" viewBox="-2 -2 114 104" id="blue-block-icon" x="201" y="124" xmlns="http://www.w3.org/2000/svg"><path d="M90.718 97.059c-.227.228-.34.456-.567.685-.566.685-1.473.913-2.379.913-2.38-.228-3.173-2.055-4.646-3.54-1.586-1.598-4.079-2.398-6.231-2.968-1.7-.457-4.42 1.027-2.833 3.083.34.456 1.133.57 1.586 1.027.68.686.227 2.056-.566 2.513-.907.456-1.926.342-2.946.114-2.04-.457-3.853-1.485-5.439-2.74-.793-.686-1.586-1.371-2.606-1.6-.793-.114-1.813.343-2.04 1.028-.226.571.454 1.37.227 1.827-.453.685-3.059.457-3.739.457-1.36 0-2.946-.228-3.626-1.37-1.246-2.056-1.473-4.568-1.7-6.852-.34-3.996-1.132-8.107-1.812-11.99-1.133-6.051-2.38-12.902.113-18.726 1.02-2.398 2.493-4.681 3.74-6.965.566-1.142 1.132-2.284 1.472-3.54.453-1.484.907-4.682-1.586-4.453-.793.114-1.586.57-2.266 1.142-3.06 2.398-6.005 4.91-9.065 7.422l-4.418 3.768c-.454.343-.907.913-1.36 1.37-.34.343-.68.8-1.133 1.142-.567.457-.907.457-1.36-.114-.793-1.142-1.02-2.74-1.36-4.11-.34-1.714-.906-3.426-1.586-5.14-.68-1.712-1.586-3.31-2.04-5.138-.453-1.94-.34-3.882-.566-5.823-.113-1.713-.68-3.768-1.813-5.024-.906-1.028-2.04-1.142-3.286-1.713-3.172-1.599-5.438-4.34-8.158-6.509-4.192-3.54-8.158-6.737-12.123-9.934-1.02-.8-2.153-1.599-3.173-2.398-.793-.685-1.7-1.256-1.36-2.512C.413 9.477 1.206 8.906 2 9.02c.68.114 1.813.342 1.36-.8-.454-1.027.226-2.854 1.472-2.854.793 0 1.36.57 2.04.799.226.114.566.114.793-.114.68-.571 0-2.056.34-2.855.68-1.37 2.606-1.142 3.512-.114.114.114.34.342.567.457.226.114.566.114.906 0 .567-.229 1.02-.571 1.247-1.142.34-.571.34-1.37.906-1.713.567-.457 1.246-.228 1.926 0 .454.114.907.343 1.247.685.226.343.34.685.68.914.34.342.906.456 1.472.342.567-.114.907-.57 1.247-1.028.226-.228.34-.57.566-.799.34-.342.794-.457 1.247-.457 1.02 0 2.04.571 2.492 1.485.114.228.227.457.454.685.453.457 1.246-.114 1.586-.571.566-.8 1.02-1.37 2.04-1.142.793.229 1.699.685 1.926 1.485.113.456.113.913.34 1.256.34.456 1.02.342 1.586.114.453-.229 1.02-.571 1.586-.457.34 0 .567.228.793.457.227.228.453.457.567.685.34.342.34.913.566 1.37.34.914 1.247 1.142 2.04.685.453-.228 1.133-.342 1.586-.228 1.02.228 1.36 1.37 1.02 2.284-.227.57-.227 2.283.906 1.94 1.133-.342 1.7-.798 2.493.458.453.57 1.02 2.055.34 2.626-2.72 2.284-5.552 4.567-8.271 6.965-1.473 1.142-4.76 2.97-5.552 4.682-1.36 2.74 2.152 2.855 3.852 2.855a82.724 82.724 0 007.478-.685A59.568 59.568 0 0054.12 24.55c2.833-1.028 5.666-2.055 5.326-5.595 0-.228-.114-.571-.227-.8-.227-.228-.453-.228-.68-.228-.453 0-.906.114-1.36 0-.453-.114-.906-.457-1.02-.8-.113-.57-.226-1.598-.226-2.169 0-.456 0-1.027-.34-1.256-.226-.114-.453-.114-.566-.342-.227-.343 0-.685.226-1.028.68-.914.907-2.17.567-3.311-.227-.686-.567-1.37-.793-2.17-.454-2.284 1.926-4.682 4.192-3.768.68.342 1.36.913 2.153.913.793 0 1.36-.685 1.7-1.37.566-1.142.906-2.512 2.945-2.512.793 0 1.587.228 2.38.685 1.813 1.028 3.512 2.398 4.192 4.34.34 1.027.227 2.169-.227 3.196-.453.914-1.473 1.37-1.246 2.513.113.913 1.133 1.94 1.473 2.968a7.96 7.96 0 010 3.997c-.113.57-.453 1.028-.793 1.484-2.266 2.627-3.966-2.283-6.119-.57-2.832 2.169.907 5.024 2.72 6.166 2.492 1.598 4.872 3.768 5.438 6.622.114.457.114.914 0 1.37a1.09 1.09 0 01-1.02.8c-.566 0-1.359-.457-1.699 0a.35.35 0 000 .457c.227 1.142 1.133 2.055 1.926 2.969 2.38 2.968 2.38 6.508 1.926 10.162-.453 4.34-1.36 8.564-2.379 12.79-.227 1.027-.68 2.283-1.7 2.511-.566.114-1.133-.114-1.7.114-.452.115-.679.457-1.019.8-1.586 1.827-3.286 4.453-2.72 7.08.114.57.454 1.141.794 1.598 3.739 4.567 7.478 8.45 12.803 11.076 2.38 1.142 4.76 1.484 7.139 2.512 2.152.914 3.852 2.512 5.778 3.654 1.7 1.028 3.853 1.599 5.892 2.055 1.36.343 3.853-.342 2.833-2.283-1.02-1.941-4.192-1.485-2.833-4.454.793-1.826 3.286-2.283 5.099-1.826 2.946.685 5.552 3.082 6.005 6.166.34 2.626-.566 5.366-2.379 7.193-4.533 4.225-9.405.914-14.503.8-.567-.343-1.02-.343-1.36 0z" fill="#fff"/></svg><svg width="10" height="14" fill="none" viewBox="-2 -2 10 14" id="breadcrumb-arrow" x="339" y="194" xmlns="http://www.w3.org/2000/svg"><path d="M4.997 1L1 5l3.997 4" stroke="#000" stroke-linecap="round"/></svg><svg width="124" height="124" fill="none" viewBox="-2 -2 124 124" id="cat" y="106" xmlns="http://www.w3.org/2000/svg"><g clip-path="url(#acclip0)"><path d="M5.718 80.985a5.903 5.903 0 004.463.902 4.503 4.503 0 012.529.287c.292.56.409 1.196.336 1.824 0 2.586-1.714 4.803-3.767 7.456-2.948 3.827-7.405 9.609-3.601 17.219a11.835 11.835 0 008.115 6.597c.865.191 1.747.288 2.634.287a17.458 17.458 0 007.12-1.715 14.672 14.672 0 0012.04 6.155h54.918c7.592.144 13.97-5.678 14.517-13.252a13.944 13.944 0 00-10.571-14.286 37.525 37.525 0 01-3.432-10.78c-.232-1.431-.471-2.708-.71-3.921 16.796-5.981 26.735-17.954 26.735-33.759a31.852 31.852 0 00-8.062-21.833 54.362 54.362 0 00-2.641-20.909A2 2 0 00104.485 0c-5.59 0-12.522 4.814-17.631 9.147A84.71 84.71 0 0063.045 6a84.517 84.517 0 00-24.232 3.261C33.663 4.873 26.676 0 21.046 0a2 2 0 00-1.857 1.257 54.808 54.808 0 00-2.624 21.526A31.994 31.994 0 009.047 44c0 15.805 9.94 27.778 26.734 33.76a118.221 118.221 0 00-.708 3.913 36.036 36.036 0 01-3.475 10.766 13.933 13.933 0 00-9.478 8.322 5.338 5.338 0 00-.823.556 11.118 11.118 0 01-4.762 2.226 2.795 2.795 0 01-.12-.219c-.307-.613-.447-.893 2.39-4.577 2.634-3.383 6.241-8.016 6.241-14.748a13.567 13.567 0 00-4.733-11.107A15.917 15.917 0 007.87 70.119a5.997 5.997 0 00-2.153 10.867v-.001zm7.329-36.986a28.079 28.079 0 017.057-19.194c.353-.398.532-.918.5-1.45a56.797 56.797 0 011.84-19.214c3.63.683 8.83 3.828 14.583 8.864a2 2 0 001.926.4A79.515 79.515 0 0163.045 10c8.015-.1 16 1.008 23.684 3.289a2.001 2.001 0 001.91-.401c5.698-4.964 10.848-8.068 14.447-8.746a56.44 56.44 0 011.862 18.65 2.002 2.002 0 00.535 1.473A27.966 27.966 0 01113.045 44c0 25.095-26.935 34-50 34-23.064 0-49.998-8.905-49.998-34zm19.571 52.307a4.024 4.024 0 002.594-2.048 41.541 41.541 0 003.808-11.94c.195-1.204.396-2.3.596-3.34a85.51 85.51 0 0023.43 3.02 85.502 85.502 0 0023.428-3.022c.2 1.043.402 2.14.598 3.348a41.552 41.552 0 003.804 11.928 4.06 4.06 0 002.64 2.065 9.99 9.99 0 017.512 10.215 10.418 10.418 0 01-10.523 9.466h-2.55a5.727 5.727 0 00-.335-4.789 9.777 9.777 0 00-3.852-3.699 8.026 8.026 0 01-1.268-.883c-1.005-1.313-2.583-9.782-3.47-16.877a2.003 2.003 0 00-3.202-1.367 1.998 1.998 0 00-.767 1.863c.778 6.23 2.408 17.004 4.57 19.165.617.58 1.3 1.083 2.035 1.502a6.098 6.098 0 012.456 2.235 1.82 1.82 0 01-.047 1.826 2.042 2.042 0 01-1.77 1.024h-8.088a1.981 1.981 0 01-1.948-1.55 120.578 120.578 0 01-3.224-22.45 2 2 0 10-4 0 124.237 124.237 0 003.32 23.324c.058.229.13.455.213.676H57.512c.084-.222.155-.448.213-.677a124.31 124.31 0 003.32-23.323 2 2 0 10-4 0 120.661 120.661 0 01-3.223 22.449 1.982 1.982 0 01-1.949 1.551h-8.087a2.04 2.04 0 01-1.77-1.024 1.82 1.82 0 01-.046-1.827 6.083 6.083 0 012.456-2.234 10.687 10.687 0 002.035-1.502c2.162-2.161 3.792-12.936 4.57-19.165a2 2 0 10-3.969-.496c-.888 7.094-2.465 15.564-3.43 16.833a7.578 7.578 0 01-1.308.927 9.764 9.764 0 00-3.852 3.699 5.724 5.724 0 00-.335 4.789h-2.55a10.418 10.418 0 01-10.525-9.47 10 10 0 017.556-10.222zM7.374 74.899c.305-.455.78-.768 1.318-.867 3.17-.611 6.454.097 9.092 1.958a9.72 9.72 0 013.262 8.008c0 5.357-2.868 9.04-5.405 12.3-2.632 3.42-4.371 5.679-2.803 8.813a3.8 3.8 0 002.68 2.34 9.032 9.032 0 005.571-1.304c.003.199-.03.394-.02.596.068 1.197.294 2.379.674 3.516a11.805 11.805 0 01-7.094 1.104 7.818 7.818 0 01-5.393-4.48c-2.682-5.365.439-9.414 3.254-13.068 2.23-2.882 4.536-5.864 4.536-9.817a6.015 6.015 0 00-1.797-4.914 8.132 8.132 0 00-5.822-1.126 1.96 1.96 0 01-1.483-.296 2.017 2.017 0 01-.857-1.284 1.95 1.95 0 01.287-1.48z" fill="#999"/><path d="M51.958 35.114a2.01 2.01 0 00-2.69.848c-.14.265-3.597 6.444-15.673 2.994a2 2 0 00-1.1 3.846 28.592 28.592 0 007.846 1.206c9.244 0 12.336-5.923 12.493-6.234a1.99 1.99 0 00-.876-2.66zM85.748 44.008c2.659-.035 5.3-.44 7.846-1.206a2 2 0 10-1.1-3.846c-12.018 3.435-15.502-2.678-15.67-2.991a2 2 0 10-3.569 1.809c.157.311 3.25 6.234 12.493 6.234z" fill="#999"/><path fill="#FF5773" d="M58.136 49.049h9.943v5.245h-9.943z"/><path d="M69.631 71.412a2 2 0 002.828-2.828l-7.413-7.413v-3.548a4.944 4.944 0 001.857-1.217l2.997-3.2a4.011 4.011 0 00.813-4.383A4.988 4.988 0 0066.043 46h-5.994a4.987 4.987 0 00-4.671 2.824c-.641 1.49-.32 3.22.812 4.383l2.998 3.2c.52.541 1.154.958 1.858 1.218v3.547l-7.414 7.413a2.001 2.001 0 002.828 2.828l6.585-6.585 6.586 6.585zM59.043 50.424c.025-.093.323-.425 1.006-.425h5.993c.683 0 .98.332.939.473l-2.998 3.2a1.602 1.602 0 01-1.875 0l-3.065-3.248z" fill="#999"/></g><defs><clipPath id="acclip0"><path fill="#fff" d="M0 0h120v120H0z"/></clipPath></defs></svg><svg width="201" height="106" fill="none" viewBox="-2 -2 201 106" id="cat-stencil" xmlns="http://www.w3.org/2000/svg"><path fill-rule="evenodd" clip-rule="evenodd" d="M16.23 103v-2.514c0-.773.194-1.74.58-2.513 1.738-2.9 5.794 3.094 7.918 4.254.58.193.966.58 1.545.773h32.832c1.546-1.353 1.546-3.287 1.16-5.994-.773-5.993 3.862-5.22 10.428-1.74 3.283 1.74 8.112 5.027 14.292 7.734H197c-2.318-3.674-6.953-5.994-12.747-7.347-10.815-2.514-27.231-4.834-28.196-12.568-.773-7.734 5.6-9.474 3.862-18.561-1.738-9.087-4.249-14.694-4.249-16.048 0-1.353 7.339-5.607 8.305-10.054.772-4.253-3.09-9.087-3.09-12.567 0-3.48.772-13.535-1.352-19.142-2.125-5.607-3.09-11.987-9.27 1.547-1.739 3.674-4.056 7.154-9.657 7.154s-10.429-3.867-13.519-10.054c-3.09-5.994-6.759-10.44-8.691 6.574-.579 4.833-.772 7.734.773 11.214 1.738 3.48-3.477 5.994-3.477 10.44 0 4.254 1.159 7.154 2.511 12.181 1.931 6.767-3.862 5.607-5.214 8.314-.966 1.934 3.476 4.834 7.725 12.181 4.249 7.347 5.987 10.44 3.862 12.568-1.545 1.546-4.442 1.546-5.987 1.353-.386 0-.579.387-.386.773.773 1.354 1.738 3.867-.193 5.994-1.931 2.32-5.601.774-7.339 0-.386-.193-.772.194-.772.58.193 1.16 0 3.287-1.352 3.867-3.284 1.16-5.601-.193-6.567-1.16-.193-.193-.772-.193-.772.194-.387 1.546-1.159 4.253-3.284 4.253-3.09 0-7.725-7.347-10.815-15.274-3.09-7.734-3.67-7.154-9.077-5.607-11.394 3.093-15.836-6.38-8.69-8.701 8.497-2.9 11.2-4.06 9.076-10.247-2.124-5.994-5.6-10.248-5.6-10.248-7.34-10.054-16.803-15.274-39.399-7.734C20.673 40.935 9.857 50.41 4.257 62.59 1.167 69.552.587 78.058.2 85.406-.185 90.82.008 96.62.587 102.613h15.644V103z" fill="#fff"/></svg><svg width="15" height="12" fill="none" viewBox="-2 -2 15 12" id="check" x="325" y="245" xmlns="http://www.w3.org/2000/svg"><path d="M1.393 3.452l2.994 2.991 5.006-5" stroke="#fff" stroke-width="2" stroke-linecap="round"/></svg><svg width="86" height="73" fill="none" viewBox="-2 -2 86 73" id="climber" y="230" xmlns="http://www.w3.org/2000/svg"><path d="M81.975 64.727c-.188-4.728-1.317-9.583-3.261-14.439-1.568-3.833-3.7-7.54-6.398-11.053a50.344 50.344 0 00-4.202-4.856 80.622 80.622 0 00-2.32-2.3c-.251-.256-.628-.511-.941-.767-.502-.383-1.004-.83-1.317-1.214-.44-.575-.941-1.533-.816-2.108.188-.575 1.13-1.342 1.756-1.661 1.694-.64 3.262-2.045 4.265-3.961.941-1.726 3.324-6.39-1.505-9.009-1.882-1.022-3.575-1.086-5.018-.128-1.442.895-2.383 2.556-3.135 3.897-.941 1.79-1.255 3.77-.941 5.495.063.64.125 1.725-.314 1.917-.752.256-1.63.064-2.571-.575-.377-.256-.816-.575-1.192-.959-.878-.83-1.38-1.98-1.756-2.875-1.38-3.322-1.944-7.091-1.568-10.861.188-1.789.502-3.067 1.066-4.09.188-.382.565-.957.941-1.15.376-.19.878-.319 1.505-.319.565 0 .941-.255 1.066-.51.189-.192.251-.448.251-.767.063-.575-.125-1.087-.439-1.534-.627-.766-1.505-.83-2.383-1.022-1.003-.256-.815-1.15-.627-2.108.125-.512.125-.959.188-1.47.063-.767-.314-1.406-.878-1.597a2.192 2.192 0 00-.627-.128c-.314-.383-.878-.511-1.255-.575-.313 0-.627.064-.878.256-.439-.192-1.003-.128-1.505.191-.188.128-.313.32-.439.447-.125.128-.125.256-.188.384-.126 0-.251.064-.377.128a2.241 2.241 0 00-.815.894c-.25.511-.25 1.022-.313 1.47l.125 1.277c-.063.703-.125 1.342 0 2.109.063.383.126.766.25 1.15.126.32.19.575.252.83 0 .064-.063.256-.063.384 0 .064-.063.191-.063.255-.062.32-.188.64-.25.959-.377 1.405-.753 2.875-.941 4.408-.126 1.214-.188 2.428-.251 3.578-.188 7.028 1.63 13.417 5.143 18.528l.125.128c.314.384.565.767.69 1.214.314.767-.063 1.533-.94 2.556-1.255 1.597-2.698 3.386-4.328 4.92-1.317 1.213-2.509 2.236-4.077 2.81h-.063c-.188-.127-.501-.702-.627-.958-.125-.191-.188-.383-.313-.51-.189-.256-.314-.512-.502-.768-.188-.255-.377-.51-.627-.766l-.063-.064c-.188-.256-.44-.511-.69-.83l-.063-.065c-.188-.255-.439-.447-.627-.639 0-.063-.063-.063-.125-.127l-.565-.575c-.188-.192-.439-.384-.627-.575l-.188-.192-.44-.383c-.25-.192-.438-.384-.69-.575-.187-.192-.438-.32-.626-.511l-.753-.575-.753-.576c-.25-.191-.439-.319-.69-.51-.376-.256-.752-.512-1.003-.703l-.376-.256c-.063-.064-.126-.064-.188-.128-.126-.064-.314-.192-.502-.255h-.063c-.376-.128-.815-.192-1.254-.128-.188 0-.314.064-.502.064-.188.064-.314.127-.502.191a5.692 5.692 0 00-.878.448c-.125.064-.313.191-.564.32l-.314.19c-.188.065-.313.192-.502.256l-.627.32c-.376.191-.815.383-1.317.639l-2.634 1.278c-.314.127-.565.319-.878.447l-.126.064c-.313.127-.564.32-.878.447l-.313.128c-.251.127-.44.255-.627.32-.126.063-.314.19-.502.255a5.761 5.761 0 00-.502.32l-.125.063c-.189.128-.44.32-.628.447-.627.384-1.191.767-1.818 1.086a9.153 9.153 0 01-1.38.64l-.251.063c-.314.128-.565.192-.878.32-.126.064-.314.064-.44.127-.313.064-.564.128-.815.128H10.1c-.125 0-.313 0-.501-.064-.314-.064-.628-.191-1.004-.32a3.028 3.028 0 00-.439-.19c-.125-.065-.188-.129-.314-.193a1.31 1.31 0 01-.376-.255c-.313-.192-.564-.447-.815-.639l-.44-.447c-.187-.192-.25-.383-.376-.511-.062-.064-.062-.192-.188-.256-.062-.192-.188-.32-.25-.447.25-.064.125-.256.062-.383-.25-.32-.564-.512-.878-.703-.188-.064-.376-.192-.564-.256-.189-.064-.377-.128-.565-.128-.439 0-.815.128-1.129.32-.376.255-1.442 1.278-1.38 3.578v.639c.063.383.126.702.189 1.15v.128c.062.319.25.702.439 1.086.188.255.376.575.627.894.188.256.439.511.627.767l.125.128.502.51c.251.192.502.384.69.576.188.127.376.32.565.447l.752.575c.251.192.44.32.565.447.062.064.125.064.125.128.125.128.188.256.314.383.125.192.25.448.376.703.125.32.25.703.376 1.086l.126.511c.062.192.125.32.188.448 0 .064.063.127.125.191.188.32.502.64.878.83l.377.193c.25.127.439.191.627.191.564.128 1.129 0 1.568-.255l.188-.128c.125-.128.25-.192.439-.32l.125-.064c1.004-.638 2.258-1.341 3.387-1.533 2.195-.32.314 2.556-.25 3.322-.502.703-1.004 1.342-1.506 2.109a7.58 7.58 0 01-.94 1.15c-.189.192-.377.32-.628.511-.188.128-.376.256-.627.383-.376.192-.753.384-1.129.511-.314.128-.627.192-.94.256-.314.064-.69.128-1.004.128h-.816c-.313 0-.564 0-.878-.064-.25-.064-.501-.064-.752-.128-.063 0-.126-.064-.188-.064-.189-.064-.44-.127-.628-.191l-.752-.192.188-.064-1.129-.064c-1.066-.064-1.63-.192-2.509.447-.878.64-.94 2.237-.439 3.131 0 .064.063.128.126.192.188.255.313.51.564.703.251.255.502.447.753.639.125.063.188.127.313.191a.472.472 0 00.251.128l.126.064c.062 0 .062.064.125.064v.064l.753.32c.062 0 .125.063.188.063l.376.192c.063 0 .126.063.188.063.126.064.251.064.314.128.188.064.314.128.502.192.25.064.501.128.815.192.188.064.314.064.502.127.125 0 .25.064.376.064l.753.192c.313.064.564.128.878.192.25.064.439.127.69.191.25.064.564.192.878.384.125.064.25.127.376.255.25.192.502.384.815.64l.44.382c.25.192.501.448.752.575.125.128.314.192.44.256.5.32 1.065.511 1.693.383.062 0 .188-.064.188-.064.125-.063.25-.063.376-.127.063-.064.125-.064.188-.128.126-.064.251-.128.314-.256l.188-.191c.063-.064.188-.192.25-.32.063-.064.126-.128.126-.191.063-.128.126-.192.188-.32l.063-.128c.125-.191.25-.447.376-.702l.063-.128c.063-.128.125-.256.188-.32l.063-.064c.063-.063.063-.191.125-.255.126-.256.314-.447.44-.703.125-.192.313-.447.438-.639.565-.703 1.067-1.278 1.067-1.278.376-.383.69-.83 1.066-1.214a25.073 25.073 0 001.505-1.916c.502-.64.94-1.278 1.38-1.917.627-.895 1.192-1.789 1.882-2.875l.94-1.533c.251-.448.565-1.278 1.255-1.15.564.127 1.003.894 1.505 1.405.125.128.314.32.439.383h.063l.752.575c.188.128.377.32.565.448l.502.383c.188.192.438.32.69.511 2.634 1.853 6.146 3.195 9.156 3.642 4.265.575 8.78-.511 12.105-3.003.188-.128.314-.255.502-.383.69-.511 1.317-.959 1.944-1.725.815-.959 1.505-2.045 2.258-3.323 1.254-2.172 2.195-4.536 3.199-6.772l.439-1.022c.062-.192.188-.256.25-.32.377-.128 1.506.064 4.328 2.364l.063.064c1.442 1.15 2.76 2.556 3.888 4.025.314.447.627.895.878 1.342.251.383.44.703.69 1.086.878 1.278 1.694 2.747 2.384 4.153.501 1.022.69 2.492 0 3.322-.189.192-.941.064-1.38 0-.126 0-.251-.064-.314-.064-1.003-.191-1.756.32-1.944 1.214-.188 1.023.564 2.3 2.383 2.748l.188.064c.126.063.314.063.377.127 0 .192 0 .511-.063.959-.126.894-.376 3.96.878 4.664.44.255.94.191 1.317-.064.251.255.69.51 1.192.575.313.064.627-.064.878-.256.376.32.815.511 1.317.447.125 0 .188-.063.313-.063.44-.192.753-.512.879-.895.313.064.69.128 1.003 0 1.505.064 1.443-1.15 1.38-3.067z" fill="#fff"/></svg><svg width="27" height="27" fill="none" viewBox="-2 -2 27 27" id="close" x="86" y="274" xmlns="http://www.w3.org/2000/svg"><path fill-rule="evenodd" clip-rule="evenodd" d="M20.88 21.92a1 1 0 001.414-1.414L13.1 11.313l9.192-9.192A1 1 0 0020.88.707L11.687 9.9 2.495.707A1 1 0 101.08 2.121l9.193 9.192-9.193 9.193a1 1 0 101.414 1.414l9.193-9.192 9.192 9.192z" fill="#000"/></svg><svg width="22" height="22" fill="none" viewBox="-2 -2 22 22" id="code-error" x="325" y="150" xmlns="http://www.w3.org/2000/svg"><path fill-rule="evenodd" clip-rule="evenodd" d="M9 17A8 8 0 109 1a8 8 0 000 16zm0 1A9 9 0 109 0a9 9 0 000 18z" fill="red"/><path d="M8.526 10.352a.461.461 0 00.923 0l.163-5.583a.62.62 0 10-1.238-.001l.152 5.584zm.48 3.517a.794.794 0 00.806-.806.797.797 0 00-.805-.82.8.8 0 00-.82.82c0 .455.352.806.82.806z" fill="#000"/></svg><svg width="22" height="23" fill="none" viewBox="-2 -2 22 23" id="code-success" x="325" y="127" xmlns="http://www.w3.org/2000/svg"><path fill-rule="evenodd" clip-rule="evenodd" d="M9 17.5a8 8 0 100-16 8 8 0 000 16zm0 1a9 9 0 100-18 9 9 0 000 18z" fill="#0B0"/><path fill-rule="evenodd" clip-rule="evenodd" d="M13.986 6.315a.5.5 0 010 .707L7.97 13.04 4.815 9.883a.5.5 0 01.707-.707l2.448 2.448 5.31-5.309a.5.5 0 01.706 0z" fill="#000"/></svg><svg width="27" height="27" fill="none" viewBox="-2 -2 27 27" id="delivery-icon" x="113" y="274" xmlns="http://www.w3.org/2000/svg"><path fill-rule="evenodd" clip-rule="evenodd" d="M7.716 14.59a.638.638 0 01-.646-.005l-5.143-3.087v5.64c0 .23.122.44.32.554l8.617 4.924v-9.83l-3.148 1.805zM15.93 14.496a.64.64 0 01-.636.006L12.14 12.73v9.889l8.612-4.834a.638.638 0 00.325-.556V11.46l-5.147 3.035z" fill="#C4C4C4"/><path fill-rule="evenodd" clip-rule="evenodd" d="M15.599 13.21l7.396-4.361-2.641-1.499-7.517 4.307 2.762 1.552zM3.907 6.637l7.634 4.29 7.523-4.31-7.562-4.291-7.595 4.31zM15.6 0l-2.804 1.592L20.35 5.88 23 4.362 15.6 0zM7.406 13.297l2.844-1.63-7.64-4.295L0 8.854l7.406 4.443zM.005 4.443l2.603 1.463 7.601-4.314L7.407.002.005 4.441z" fill="#C4C4C4"/></svg><svg width="27" height="27" fill="none" viewBox="-2 -2 27 27" id="delivery-icon-black" x="140" y="274" xmlns="http://www.w3.org/2000/svg"><path fill-rule="evenodd" clip-rule="evenodd" d="M7.716 14.59a.638.638 0 01-.646-.005l-5.143-3.087v5.64c0 .23.122.44.32.554l8.617 4.924v-9.83l-3.148 1.805zM15.93 14.496a.64.64 0 01-.636.006L12.14 12.73v9.889l8.612-4.834a.638.638 0 00.325-.556V11.46l-5.147 3.035z" fill="#1B1B1B"/><path fill-rule="evenodd" clip-rule="evenodd" d="M15.599 13.21l7.396-4.361-2.641-1.499-7.517 4.307 2.762 1.552zM3.907 6.637l7.634 4.29 7.523-4.31-7.562-4.291-7.595 4.31zM15.6 0l-2.804 1.592L20.35 5.88 23 4.362 15.6 0zM7.406 13.297l2.844-1.63-7.64-4.295L0 8.854l7.406 4.443zM.005 4.443l2.603 1.463 7.601-4.314L7.407.002.005 4.441z" fill="#1B1B1B"/></svg><svg width="44" height="44" fill="none" viewBox="-2 -2 44 44" id="discount" x="86" y="230" xmlns="http://www.w3.org/2000/svg"><path fill-rule="evenodd" clip-rule="evenodd" d="M14.546 16.364a1.82 1.82 0 001.818-1.818 1.82 1.82 0 00-1.818-1.819 1.82 1.82 0 00-1.819 1.819 1.82 1.82 0 001.819 1.818zM25.455 23.637a1.821 1.821 0 00-1.818 1.819 1.82 1.82 0 001.818 1.817 1.82 1.82 0 001.818-1.817c0-1.003-.816-1.82-1.818-1.82z" fill="red"/><path fill-rule="evenodd" clip-rule="evenodd" d="M28.825 12.46L12.46 28.825a.906.906 0 01-1.286 0 .908.908 0 010-1.285L27.54 11.175a.908.908 0 111.286 1.286zm-3.37 16.63a3.64 3.64 0 01-3.637-3.634 3.64 3.64 0 013.637-3.638 3.64 3.64 0 013.636 3.637 3.64 3.64 0 01-3.636 3.636zm-10.91-18.18a3.64 3.64 0 013.637 3.636 3.64 3.64 0 01-3.636 3.636 3.64 3.64 0 01-3.637-3.636 3.64 3.64 0 013.636-3.637zM40 20c0-.702-.57-1.317-1.358-2.17-.373-.403-.996-1.076-1.067-1.318-.03-.268.288-1.13.478-1.645.403-1.086.693-1.872.425-2.52-.269-.649-1.07-1.019-2.085-1.485-.498-.23-1.332-.614-1.49-.81-.13-.235-.166-1.152-.186-1.7-.044-1.116-.078-1.997-.575-2.495-.495-.495-1.334-.528-2.494-.573-.548-.021-1.465-.058-1.687-.178-.21-.167-.593-1-.822-1.498-.468-1.015-.837-1.817-1.487-2.087-.648-.266-1.433.024-2.518.425-.517.19-1.387.511-1.63.481-.259-.073-.933-.697-1.335-1.07C21.35.6 20.702 0 20 0c-.7 0-1.317.57-2.17 1.358-.402.372-1.075.996-1.319 1.067-.247.029-1.128-.289-1.643-.479-1.087-.402-1.873-.692-2.522-.424-.649.269-1.017 1.07-1.485 2.085-.23.498-.613 1.332-.808 1.49-.236.13-1.153.166-1.7.187-1.161.045-2 .078-2.497.574-.494.497-.529 1.378-.571 2.494-.022.548-.058 1.465-.179 1.687-.167.21-1 .593-1.499.823-1.014.466-1.816.836-2.086 1.486-.267.647.024 1.433.426 2.52.19.515.508 1.376.482 1.627-.074.259-.698.932-1.07 1.335C.57 18.683 0 19.298 0 20s.57 1.317 1.358 2.17c.373.403.997 1.076 1.067 1.318.03.268-.288 1.13-.478 1.644-.402 1.087-.693 1.872-.425 2.522.269.648 1.07 1.018 2.085 1.484.498.23 1.332.614 1.49.81.13.235.166 1.152.188 1.7.044 1.16.077 1.997.573 2.495.496.495 1.334.528 2.495.572.547.022 1.464.059 1.686.179.21.167.593 1 .822 1.499.468 1.014.836 1.816 1.488 2.086.647.268 1.433-.023 2.52-.425.513-.191 1.336-.513 1.627-.483.258.075.931.698 1.334 1.07C18.683 39.43 19.3 40 20 40c.702 0 1.317-.57 2.17-1.358.402-.373 1.075-.997 1.318-1.068.284-.034 1.13.289 1.646.48 1.086.401 1.87.692 2.519.424.649-.269 1.018-1.07 1.486-2.086.23-.498.613-1.331.808-1.49.236-.128 1.153-.165 1.701-.187 1.16-.044 1.999-.077 2.496-.573.495-.497.527-1.334.573-2.494.02-.548.056-1.465.177-1.687.167-.21 1-.593 1.499-.823 1.014-.466 1.816-.836 2.086-1.486.267-.648-.023-1.433-.426-2.52-.19-.515-.508-1.377-.482-1.628.075-.258.698-.931 1.07-1.334.79-.853 1.36-1.468 1.36-2.17z" fill="red"/></svg><svg width="22" height="25" fill="none" viewBox="-2 -2 22 25" id="filter" x="325" y="33" xmlns="http://www.w3.org/2000/svg"><path fill-rule="evenodd" clip-rule="evenodd" d="M.993 1.75c0-.332.127-.65.352-.884C1.57.632 1.875.5 2.193.5h14.4c.318 0 .624.132.849.366.225.235.351.552.351.884V5.5c0 .331-.126.65-.351.884l-5.649 5.883v4.483c0 .331-.126.65-.351.884l-2.4 2.5a1.186 1.186 0 01-.615.342 1.155 1.155 0 01-.693-.071 1.212 1.212 0 01-.539-.46 1.287 1.287 0 01-.202-.695v-6.982L1.345 6.383A1.277 1.277 0 01.993 5.5V1.75z" fill="#484DCD"/></svg><svg width="67" height="101" fill="none" viewBox="-2 -2 67 101" id="giraffe" x="124" y="106" xmlns="http://www.w3.org/2000/svg"><path fill-rule="evenodd" clip-rule="evenodd" d="M29.62 34.52c-1.214 1.16-2.587 2.796-4.118 3.534-1.32.633-2.904.37-4.277.37-1.214 0-2.481.369-3.696.422-5.069.264-9.24 4.853-10.93 9.39-.316.844-.58 1.74-1.055 2.48-1.162 1.898-3.538 2.795-4.594 4.8-.633 1.16-.686 2.48-.792 3.798C.106 60.316.053 61.266 0 62.268c0 .159 0 .37.106.528.158.21.475.21.686.21 2.27-.21 4.33-1.951 5.016-4.167.264-.95.633-3.376 1.69-3.798 2.111-.791 1.267 7.122 1.267 8.177-.053 1.688-1.004 3.323-1.901 4.748-.37.58-.74 1.108-.898 1.793-.158.58-.158 1.214-.105 1.794a58.868 58.868 0 01-2.64 18.411c-.423 1.372-.898 2.69-.95 4.115 0 .264 0 .527.105.738.106.211.317.422.528.58 1.584 1.267 3.854 1.372 5.65.528 1.689-.791.105-3.534.158-5.011.053-1.425.211-2.85.422-4.273.37-2.638.475-5.381 1.32-7.913.211-.528 1.056-1.952 1.795-1.267.106.106.159.317.211.475.317 1.794.476 3.43 1.11 5.117.686 1.9 1.53 3.746 1.53 5.803 0 1.636-.527 3.218-.739 4.906-.053.633-.053 1.32.37 1.794.264.264.58.37.898.475.58.158 1.32.422 1.953.369.264 0 .528-.106.792-.158.264-.053.475-.106.792-.106.528.053 1.056.106 1.531-.053.95-.316 1.056-1.266.898-2.11-.264-1.424-1.056-2.637-1.479-3.956-1.056-3.007-1.795-6.33-2.323-9.443-.37-2.321-.897-4.959-.211-7.227.528-1.741 1.214-3.482 1.69-5.223.37-1.477.633-3.007 1.056-4.484.37-1.319.844-2.954 2.006-3.851.686-.528 1.69-.739 2.534-.686.792.053 1.637.158 2.27.686.687.58 1.162 1.582 1.268 2.48.475 4.905 0 9.759-.37 14.665l-.158 2.69c-.053 1.372.053 2.744.053 4.115 0 3.482-.317 6.963-.581 10.445 0 .317-.053.686.105.95a.978.978 0 00.423.37c.317.157.686.21 1.003.21.845.053 1.742.106 2.587.158.845.053 1.795.053 2.27-.58.317-.422.317-1.002.212-1.53-.106-.527-.423-.95-.634-1.424-.95-2.005-1.478-4.59-1.373-6.805.106-2.374-.264-4.906.687-7.122.21-.422.422-.844.844-1.055 1.215-.686 1.532.844 1.69 1.688.211 1.635.528 3.27.792 4.853.634 3.218 1.373 6.436 2.323 9.602.106.422.264.79.475 1.16.528.739 1.532.897 2.43.95 1.002.052 2.006 0 3.062-.106.158 0 .37-.053.527-.105.37-.211.528-.686.528-1.108-.052-1.372-1.32-2.269-2.164-3.324-1.637-1.952-2.06-4.484-2.852-6.805-.897-2.69-.844-5.908-1.055-8.757-.106-1.583-.212-3.218 0-4.8.158-1.32.633-2.638.792-3.957.422-3.165 2.006-5.961 2.111-9.232.053-1.213-.052-2.427-.475-3.587-.37-1.108-.37-2.427-.528-3.535-.264-2.163-.158-4.273 0-6.436.159-2.004.581-4.062 1.637-5.75.317-.58.686-1.108 1.003-1.688v.053c.106-.159.211-.37.317-.528.053-.105.106-.21.211-.316a45.41 45.41 0 002.957-6.278c.106-.317.211-.633.317-.897v.053c.211-.58.422-1.213.633-1.846.528-1.741.898-3.535 1.426-5.223.158-.475.317-1.002.475-1.477.158-.422.317-.844.475-1.213v-.053c.159-.422.317-.844.528-1.266.475-1.055 1.003-2.163 1.584-3.166.106-.158.159-.263.264-.421.212-.37.475-.74.687-1.056.422-.633.58-1.53 1.742-1.318h.528c.053 0 .158 0 .211-.053h.106c.105 0 .158-.053.264-.053h.105c.053 0 .159 0 .212-.053h.369c.053 0 .106 0 .159.053.052 0 .052 0 .105.053l.317.158c.053.053.106.053.158.106.159.052.37.105.528.105.37 0 .74-.105 1.056-.264 0 0 .053 0 .053-.052.528-.264.95-.686.898-1.161-.053-.844-.37-1.74-.898-2.374-.317-.37-.686-1.055-.634-1.583.053-.422.529-.633.898-.844 1.162-.58 2.06-1.582 2.587-2.743.212-.475.37-1.002.264-1.53 0-.052-.052-.105-.052-.158-.053-.053-.106-.053-.159-.105-.898-.211-1.742-.106-2.587.21-.317.106-2.006 1.214-2.006.37 0-.106.052-.211.052-.317.106-.369.053-.738-.21-1.002-.212-.211-.529-.264-.846-.211-.316.053-.58.211-.792.37-.264.21-.21.421-.37.685-.052.106-.158.158-.263.211-.423.211-.898.053-1.162-.37-.105-.157-.158-.368-.264-.474-.316-.37-1.32-.158-1.69.053-.369.21-.422.686-.369 1.108 0 .158.106.316.106.527 0 .211-.159.422-.37.528-.211.105-.475.105-.633-.106a1.153 1.153 0 01-.159-.264 1.864 1.864 0 00-.898-.79c-.422-.212-.897-.317-1.32-.37-.527-.053-1.055-.106-1.53-.106-.106 0-.212 0-.317.053a.599.599 0 00-.159.422c-.105.844-.264 1.688.053 2.427.264.686.898 1.213 1.478 1.688.37.316.792.633 1.267.791.581.211.687.37.687 1.003 0 .844-.74 1.582-1.267 2.215-.159.158-.264.37-.423.528-.158.158-.316.369-.475.527-.158.211-.317.37-.475.58-.264.317-.528.686-.792 1.056-.95 1.371-1.9 2.796-2.851 4.167-.053.106-.158.211-.211.317a114.086 114.086 0 01-2.957 4.062c-.634.844-1.267 1.635-1.848 2.426-.37.422-.686.897-1.056 1.32-.158.157-.264.368-.422.527-.212.264-.423.527-.634.844-.317.475-.686.897-1.003 1.371-.053.053-.106.106-.106.159-.211.263-.37.527-.58.791-.264.37-.581.791-.845 1.16-.159.212-.37.475-.581.686-1.215 1.425-2.587 2.902-4.013 4.379z" fill="#fff"/></svg><svg width="32" height="33" fill="none" viewBox="-2 -2 32 33" id="loader" x="266" y="230" xmlns="http://www.w3.org/2000/svg"><g clip-path="url(#aoclip0)"><path d="M28 14.754a13.944 13.944 0 01-3.75 9.537l-.009.008A13.956 13.956 0 0114 28.755a13.95 13.95 0 01-10.134-4.34A13.949 13.949 0 010 14.753a13.95 13.95 0 013.75-9.537l.008-.008A13.956 13.956 0 0114 .754c4.157 0 7.891 1.812 10.455 4.69A13.947 13.947 0 0128 14.754z" fill="#5D5860"/><path d="M28 14.754a13.944 13.944 0 01-3.75 9.537l-.009.008A13.956 13.956 0 0114 28.755a13.95 13.95 0 01-9.659-3.865l-.475-.476A13.949 13.949 0 010 14.754a13.95 13.95 0 013.75-9.537l.008-.008A13.956 13.956 0 0114 .754c4.157 0 7.891 1.812 10.455 4.69A13.947 13.947 0 0128 14.754z" fill="#6B70EB"/><path d="M27.966 15.73a13.944 13.944 0 01-3.717 8.562l-.008.007A13.956 13.956 0 0114 28.755a13.95 13.95 0 01-9.906-4.106l16.32-16.321.075-.074 7.477 7.477z" fill="#FFC200"/><path d="M13.42 23.899a3.39 3.39 0 01-5.852-2.721l-3.47 3.467-.004.003A13.95 13.95 0 010 14.755c0-3.685 1.423-7.038 3.75-9.538l.008-.008.345-.344L7.506 8.27a3.39 3.39 0 00-2.59 5.867 3.399 3.399 0 004.543.046 3.382 3.382 0 001.129-2.827l3.396 3.4.006.007-3.477 3.473a3.384 3.384 0 012.917 1.073 3.402 3.402 0 01-.01 4.589z" fill="#0B0"/><path d="M28 14.754a13.944 13.944 0 01-3.75 9.537l-.009.008-.364.364-3.402-3.406a3.389 3.389 0 002.591-5.867 3.4 3.4 0 00-4.544-.046 3.38 3.38 0 00-1.13 2.826l-3.401-3.406 3.477-3.473-.02.002a3.382 3.382 0 01-2.897-1.076 3.401 3.401 0 01.01-4.588 3.389 3.389 0 015.854 2.698l-.002.023.087-.087 3.39-3.386.565.567A13.946 13.946 0 0128 14.754z" fill="#FF5773"/></g><defs><clipPath id="aoclip0"><path fill="#fff" transform="translate(0 .754)" d="M0 0h28v28H0z"/></clipPath></defs></svg><svg width="14" height="20" fill="none" viewBox="-2 -2 14 20" id="menu-arrow" x="325" y="194" xmlns="http://www.w3.org/2000/svg"><path d="M1.035 1.035L8 8l-6.965 6.965" stroke="#015684" stroke-width="2"/></svg><svg width="14" height="20" fill="none" viewBox="-2 -2 14 20" id="menu-arrow-white" x="325" y="214" xmlns="http://www.w3.org/2000/svg"><path d="M1.035 1.035L8 8l-6.965 6.965" stroke="#fff" stroke-width="2"/></svg><svg width="22" height="22" fill="none" viewBox="-2 -2 22 22" id="notify" x="325" y="172" xmlns="http://www.w3.org/2000/svg"><path fill-rule="evenodd" clip-rule="evenodd" d="M9 17A8 8 0 109 1a8 8 0 000 16zm0 1A9 9 0 109 0a9 9 0 000 18z" fill="red"/><path d="M8.526 10.352a.461.461 0 00.923 0l.163-5.583a.62.62 0 10-1.238-.001l.152 5.584zm.48 3.517a.794.794 0 00.806-.806.797.797 0 00-.805-.82.8.8 0 00-.82.82c0 .455.352.806.82.806z" fill="#000"/></svg><svg width="34" height="35" fill="none" viewBox="-2 -2 34 35" id="pass-hidden" x="164" y="230" xmlns="http://www.w3.org/2000/svg"><g clip-path="url(#asclip0)"><path fill-rule="evenodd" clip-rule="evenodd" d="M15 5.867c8.156 0 14.541 8.61 14.81 8.977a.989.989 0 010 1.167c-.269.366-6.654 8.977-14.81 8.977S.458 16.378.19 16.01a.99.99 0 010-1.168C.458 14.477 6.844 5.867 15 5.867zm-12.751 9.56c1.54 1.868 6.743 7.583 12.75 7.583 6.021 0 11.214-5.712 12.752-7.582C26.21 13.558 21.007 7.845 15 7.845c-6.02 0-11.213 5.712-12.751 7.582zm6.817 0A5.941 5.941 0 0115 9.493a5.94 5.94 0 015.934 5.934A5.94 5.94 0 0115 21.361a5.94 5.94 0 01-5.934-5.934zm1.978 0A3.96 3.96 0 0015 19.383a3.96 3.96 0 003.956-3.956A3.96 3.96 0 0015 11.471a3.96 3.96 0 00-3.956 3.956z" fill="#000"/></g><defs><clipPath id="asclip0"><path fill="#fff" transform="translate(0 .427)" d="M0 0h30v30H0z"/></clipPath></defs></svg><svg width="34" height="35" fill="none" viewBox="-2 -2 34 35" id="pass-hide" x="198" y="230" xmlns="http://www.w3.org/2000/svg"><g clip-path="url(#atclip0)" fill="#000"><path fill-rule="evenodd" clip-rule="evenodd" d="M15 5.867c8.156 0 14.541 8.61 14.81 8.977a.989.989 0 010 1.167c-.269.366-6.654 8.977-14.81 8.977S.458 16.378.19 16.01a.99.99 0 010-1.168C.458 14.477 6.844 5.867 15 5.867zm-12.751 9.56c1.54 1.868 6.743 7.583 12.75 7.583 6.021 0 11.214-5.712 12.752-7.582C26.21 13.558 21.007 7.845 15 7.845c-6.02 0-11.213 5.712-12.751 7.582zm6.817 0A5.941 5.941 0 0115 9.493a5.94 5.94 0 015.934 5.934A5.94 5.94 0 0115 21.361a5.94 5.94 0 01-5.934-5.934zm1.978 0A3.96 3.96 0 0015 19.383a3.96 3.96 0 003.956-3.956A3.96 3.96 0 0015 11.471a3.96 3.96 0 00-3.956 3.956z"/><g clip-path="url(#atclip1)"><path fill-rule="evenodd" clip-rule="evenodd" d="M15 5.867c8.156 0 14.541 8.61 14.81 8.977a.989.989 0 010 1.167c-.269.366-6.654 8.977-14.81 8.977S.458 16.378.19 16.01a.99.99 0 010-1.168C.458 14.477 6.844 5.867 15 5.867zm-12.751 9.56c1.54 1.868 6.743 7.583 12.75 7.583 6.021 0 11.214-5.712 12.752-7.582C26.21 13.558 21.007 7.845 15 7.845c-6.02 0-11.213 5.712-12.751 7.582zm6.817 0A5.941 5.941 0 0115 9.493a5.94 5.94 0 015.934 5.934A5.94 5.94 0 0115 21.361a5.94 5.94 0 01-5.934-5.934zm1.978 0A3.96 3.96 0 0015 19.383a3.96 3.96 0 003.956-3.956A3.96 3.96 0 0015 11.471a3.96 3.96 0 00-3.956 3.956z"/><rect x="3.686" y="25.327" width="30" height="2" rx="1" transform="rotate(-45 3.686 25.327)"/></g></g><defs><clipPath id="atclip0"><path fill="#fff" transform="translate(0 .427)" d="M0 0h30v30H0z"/></clipPath><clipPath id="atclip1"><path fill="#fff" transform="translate(0 .427)" d="M0 0h30v30H0z"/></clipPath></defs></svg><svg width="34" height="35" fill="none" viewBox="-2 -2 34 35" id="pass-show" x="232" y="230" xmlns="http://www.w3.org/2000/svg"><g clip-path="url(#auclip0)"><path fill-rule="evenodd" clip-rule="evenodd" d="M15 5.867c8.156 0 14.541 8.61 14.81 8.977a.989.989 0 010 1.167c-.269.366-6.654 8.977-14.81 8.977S.458 16.378.19 16.01a.99.99 0 010-1.168C.458 14.477 6.844 5.867 15 5.867zm-12.751 9.56c1.54 1.868 6.743 7.583 12.75 7.583 6.021 0 11.214-5.712 12.752-7.582C26.21 13.558 21.007 7.845 15 7.845c-6.02 0-11.213 5.712-12.751 7.582zm6.817 0A5.941 5.941 0 0115 9.493a5.94 5.94 0 015.934 5.934A5.94 5.94 0 0115 21.361a5.94 5.94 0 01-5.934-5.934zm1.978 0A3.96 3.96 0 0015 19.383a3.96 3.96 0 003.956-3.956A3.96 3.96 0 0015 11.471a3.96 3.96 0 00-3.956 3.956z" fill="#000"/></g><defs><clipPath id="auclip0"><path fill="#fff" transform="translate(0 .427)" d="M0 0h30v30H0z"/></clipPath></defs></svg><svg width="34" height="39" fill="none" viewBox="-2 -2 34 39" id="play" x="130" y="230" xmlns="http://www.w3.org/2000/svg"><path d="M30 17.5L.75 34.388V.613L30 17.5z" fill="#fff"/></svg><svg width="25" height="33" fill="none" viewBox="-2 -2 25 33" id="play-round" x="298" y="230" xmlns="http://www.w3.org/2000/svg"><path d="M19.278 13.226a2 2 0 010 3.164L3.812 28.352C2.497 29.37.588 28.432.588 26.77V2.845c0-1.662 1.91-2.599 3.224-1.582l15.466 11.963z" fill="#fff"/></svg><svg width="25" height="33" fill="none" viewBox="-2 -2 25 33" id="play-round-purple" x="325" xmlns="http://www.w3.org/2000/svg"><path d="M19.385 13.365a2 2 0 010 3.164L3.92 28.492c-1.315 1.017-3.224.08-3.224-1.582V2.984c0-1.661 1.91-2.598 3.224-1.582l15.466 11.963z" fill="#6B70EB"/></svg><svg width="15" height="15" fill="none" viewBox="-2 -2 15 15" id="remove" x="325" y="257" xmlns="http://www.w3.org/2000/svg"><path fill-rule="evenodd" clip-rule="evenodd" d="M.701 8.863a.983.983 0 101.39 1.39l3.322-3.32 3.321 3.32a.983.983 0 001.39-1.39L6.803 5.542l3.322-3.323A.983.983 0 108.735.83L5.413 4.152 2.09.829A.983.983 0 00.7 2.22l3.323 3.323L.7 8.863z" fill="#000"/></svg><svg width="16" height="11" fill="none" viewBox="-2 -2 16 11" id="select-arrow" x="325" y="234" xmlns="http://www.w3.org/2000/svg"><path d="M1.002 1l5 5 5-5" stroke="#6B70EB" stroke-linecap="round"/></svg><svg width="15" height="11" fill="none" viewBox="-2 -2 15 11" id="select-arrow-gray" x="325" y="272" xmlns="http://www.w3.org/2000/svg"><path fill-rule="evenodd" clip-rule="evenodd" d="M1.64 1.061a.961.961 0 00-1.358 1.36l4.07 4.07.007.007a.96.96 0 001.365-.006L9.796 2.42a.961.961 0 00-1.36-1.359L5.04 4.46 1.64 1.061z" fill="#666"/></svg><svg width="18" height="24" fill="none" viewBox="-2 -2 18 24" id="shop-address" x="325" y="58" xmlns="http://www.w3.org/2000/svg"><path fill-rule="evenodd" clip-rule="evenodd" d="M7.291 19.146s6.5-8.601 6.5-12.301c0-3.7-2.91-6.7-6.5-6.7s-6.5 3-6.5 6.7 6.5 12.3 6.5 12.3zm0-9.005a3.5 3.5 0 100-7 3.5 3.5 0 000 7z" fill="#6B70EB"/></svg><svg width="24" height="24" fill="none" viewBox="-2 -2 24 24" id="shop-contacts" x="325" y="82" xmlns="http://www.w3.org/2000/svg"><path d="M13.627 14.147l1.635-1.636a1.6 1.6 0 011.71-.35l1.994.796a1.593 1.593 0 01.993 1.46v3.652a1.585 1.585 0 01-1.665 1.57C4.32 18.77 1.502 6.94.969 2.41A1.585 1.585 0 012.554.65H6.08a1.578 1.578 0 011.461.994l.796 1.994a1.578 1.578 0 01-.343 1.709L6.36 6.982s.942 6.376 7.268 7.165z" fill="#6B70EB"/></svg><svg width="24" height="21" fill="none" viewBox="-2 -2 24 21" id="shop-time" x="325" y="106" xmlns="http://www.w3.org/2000/svg"><path fill-rule="evenodd" clip-rule="evenodd" d="M.959 1.565a1 1 0 011-1h2.5a1 1 0 011 1v.5a.5.5 0 00.5.5h9a.5.5 0 00.5-.5v-.5a1 1 0 011-1h2.5a1 1 0 011 1v14a1 1 0 01-1 1h-17a1 1 0 01-1-1v-14zm3 6.5a.5.5 0 01.5-.5h2a.5.5 0 01.5.5v1a.5.5 0 01-.5.5h-2a.5.5 0 01-.5-.5v-1zm.5 3.5a.5.5 0 00-.5.5v1a.5.5 0 00.5.5h2a.5.5 0 00.5-.5v-1a.5.5 0 00-.5-.5h-2zm4.5-3.5a.5.5 0 01.5-.5h2a.5.5 0 01.5.5v1a.5.5 0 01-.5.5h-2a.5.5 0 01-.5-.5v-1zm0 4a.5.5 0 01.5-.5h2a.5.5 0 01.5.5v1a.5.5 0 01-.5.5h-2a.5.5 0 01-.5-.5v-1zm5.5-4.5a.5.5 0 00-.5.5v1a.5.5 0 00.5.5h2a.5.5 0 00.5-.5v-1a.5.5 0 00-.5-.5h-2z" fill="#6B70EB"/></svg><svg width="14" height="12" fill="none" viewBox="-2 -2 14 12" id="sort" x="325" y="283" xmlns="http://www.w3.org/2000/svg"><path fill-rule="evenodd" clip-rule="evenodd" d="M9 .012a1 1 0 010 2H5a1 1 0 110-2h4zm1 4a1 1 0 00-1-1H3a1 1 0 000 2h6a1 1 0 001-1zm0 3a1 1 0 00-1-1H1a1 1 0 000 2h8a1 1 0 001-1z" fill="#666"/></svg><svg width="14" height="12" fill="none" viewBox="-2 -2 14 12" id="sort-dark-purple" x="124" y="207" xmlns="http://www.w3.org/2000/svg"><path fill-rule="evenodd" clip-rule="evenodd" d="M9 .012a1 1 0 010 2H5a1 1 0 110-2h4zm1 4a1 1 0 00-1-1H3a1 1 0 000 2h6a1 1 0 001-1zm0 3a1 1 0 00-1-1H1a1 1 0 000 2h8a1 1 0 001-1z" fill="#484dcd"/></svg><svg width="14" height="12" fill="none" viewBox="-2 -2 14 12" id="sort-purple" x="138" y="207" xmlns="http://www.w3.org/2000/svg"><path fill-rule="evenodd" clip-rule="evenodd" d="M9 .012a1 1 0 010 2H5a1 1 0 110-2h4zm1 4a1 1 0 00-1-1H3a1 1 0 000 2h6a1 1 0 001-1zm0 3a1 1 0 00-1-1H1a1 1 0 000 2h8a1 1 0 001-1z" fill="#6B70EB"/></svg><svg width="124" height="124" fill="none" viewBox="-2 -2 124 124" id="success-cat" x="201" xmlns="http://www.w3.org/2000/svg"><g clip-path="url(#bhclip0)"><path d="M5.718 80.985a5.904 5.904 0 004.464.902c.852-.15 1.73-.05 2.528.287.292.56.409 1.196.336 1.824 0 2.585-1.714 4.8-3.769 7.458-2.948 3.826-7.402 9.61-3.6 17.217a11.835 11.835 0 008.115 6.597c.865.191 1.748.288 2.634.287a17.454 17.454 0 007.12-1.715 14.674 14.674 0 0012.04 6.155h54.918c7.592.145 13.97-5.677 14.516-13.251a13.944 13.944 0 00-10.57-14.287 37.526 37.526 0 01-3.432-10.78c-.231-1.431-.471-2.708-.71-3.921 16.797-5.981 26.736-17.954 26.736-33.759a31.852 31.852 0 00-8.062-21.833 54.362 54.362 0 00-2.641-20.909A2 2 0 00104.484 0c-5.591 0-12.523 4.814-17.63 9.147A84.708 84.708 0 0063.046 6a84.519 84.519 0 00-24.233 3.261C33.663 4.873 26.676 0 21.046 0c-.817 0-1.552.497-1.856 1.257a54.792 54.792 0 00-2.625 21.526A31.994 31.994 0 009.047 44c0 15.805 9.94 27.778 26.734 33.76a118.126 118.126 0 00-.708 3.913 36.036 36.036 0 01-3.475 10.766 13.937 13.937 0 00-9.478 8.322 5.33 5.33 0 00-.822.556 11.121 11.121 0 01-4.762 2.226 2.795 2.795 0 01-.12-.219c-.308-.613-.447-.893 2.388-4.577 2.635-3.383 6.243-8.016 6.243-14.748a13.568 13.568 0 00-4.734-11.107A15.898 15.898 0 007.87 70.119a5.995 5.995 0 00-2.153 10.867v-.001zm7.329-36.986a28.082 28.082 0 017.056-19.194c.353-.398.532-.92.5-1.45A56.831 56.831 0 0122.443 4.14c3.63.684 8.831 3.829 14.585 8.864a1.997 1.997 0 001.924.4A79.518 79.518 0 0163.046 10c8.015-.1 16 1.008 23.684 3.289a2.004 2.004 0 001.909-.401c5.697-4.964 10.847-8.068 14.447-8.746a56.44 56.44 0 011.861 18.65 2.003 2.003 0 00.536 1.473A27.96 27.96 0 01113.045 44c0 25.095-26.935 34-49.999 34-23.065 0-50-8.905-50-34zm19.571 52.307a4.028 4.028 0 002.595-2.048 41.597 41.597 0 003.808-11.94c.194-1.204.395-2.3.596-3.34a85.502 85.502 0 0023.429 3.02 85.506 85.506 0 0023.429-3.022c.2 1.043.402 2.14.597 3.348a41.526 41.526 0 003.804 11.928 4.056 4.056 0 002.64 2.065 9.986 9.986 0 017.511 10.215 10.416 10.416 0 01-10.522 9.466h-2.55a5.724 5.724 0 00-.335-4.789 9.771 9.771 0 00-3.852-3.699 8.11 8.11 0 01-1.268-.883c-1.005-1.313-2.583-9.782-3.47-16.877a2.002 2.002 0 00-3.202-1.367 2 2 0 00-.767 1.863c.778 6.23 2.408 17.004 4.57 19.165.616.58 1.3 1.083 2.035 1.502a6.1 6.1 0 012.457 2.235 1.82 1.82 0 01-.048 1.826 2.042 2.042 0 01-1.77 1.024h-8.087a1.982 1.982 0 01-1.95-1.551 123.667 123.667 0 01-3.223-22.449 2 2 0 10-4 0 124.163 124.163 0 003.321 23.323c.058.229.128.455.213.677H57.512c.085-.222.155-.448.213-.677a124.228 124.228 0 003.32-23.323 2 2 0 10-4 0 120.653 120.653 0 01-3.223 22.449 1.983 1.983 0 01-1.949 1.551h-8.087a2.04 2.04 0 01-1.77-1.024 1.819 1.819 0 01-.046-1.827 6.08 6.08 0 012.456-2.234 10.683 10.683 0 002.034-1.502c2.162-2.161 3.792-12.936 4.57-19.165a2 2 0 00-3.969-.496c-.887 7.094-2.465 15.564-3.43 16.833a7.54 7.54 0 01-1.307.927 9.771 9.771 0 00-3.853 3.699 5.727 5.727 0 00-.334 4.789h-2.552a10.415 10.415 0 01-10.523-9.47 9.998 9.998 0 017.556-10.222zM7.374 74.899a2.03 2.03 0 011.32-.867c3.17-.585 6.443.12 9.092 1.958a9.718 9.718 0 013.26 8.008c0 5.357-2.867 9.04-5.404 12.3-2.633 3.419-4.372 5.679-2.804 8.813a3.8 3.8 0 002.679 2.34 9.056 9.056 0 005.572-1.308c.002.201-.03.397-.02.6.068 1.196.294 2.379.674 3.516a11.805 11.805 0 01-7.094 1.103 7.818 7.818 0 01-5.393-4.479c-2.681-5.364.438-9.414 3.255-13.071 2.23-2.881 4.535-5.862 4.535-9.814a6.014 6.014 0 00-1.796-4.914 8.138 8.138 0 00-5.823-1.126 1.96 1.96 0 01-1.482-.296 2.023 2.023 0 01-.858-1.283 1.953 1.953 0 01.287-1.48z" fill="#999"/><path d="M51.048 37.12a2.002 2.002 0 001.787-2.896c-.195-.387-4.92-9.437-20.339-5.027a2 2 0 101.1 3.845c12.02-3.433 15.503 2.678 15.67 2.991a2 2 0 001.782 1.086zM74.133 36.884c.28.146.592.22.909.22a2.02 2.02 0 001.78-1.068c.142-.265 3.6-6.444 15.673-2.994a2 2 0 101.1-3.846c-15.417-4.406-20.144 4.641-20.339 5.028a1.989 1.989 0 00.877 2.66z" fill="#999"/><path fill="#FF5773" d="M58.136 40.883h9.943v5.245h-9.943z"/><path d="M75.045 62a11.988 11.988 0 00-.189-2.023c.144.002.267.022.413.022a2 2 0 100-4c-7.419 0-9.455-4.094-10.013-6.456a4.923 4.923 0 001.647-1.136l2.995-3.201a4.005 4.005 0 00.814-4.382A4.982 4.982 0 0066.042 38h-5.994a4.985 4.985 0 00-4.67 2.824c-.642 1.49-.321 3.221.812 4.383l2.997 3.2a4.909 4.909 0 001.648 1.137c-.559 2.363-2.595 6.456-10.014 6.456a2 2 0 000 4c.146 0 .269-.02.413-.022a11.991 11.991 0 1023.811 2.022zm-16-19.575c.023-.094.321-.426 1.004-.426h5.994c.683 0 .98.332.937.472l-2.996 3.202a1.604 1.604 0 01-1.876 0l-3.063-3.248zm-4 19.574c.015-.86.17-1.713.461-2.523a11.856 11.856 0 007.54-5.197 11.856 11.856 0 007.539 5.197c.29.81.447 1.663.46 2.523a8 8 0 01-16 0z" fill="#999"/></g><defs><clipPath id="bhclip0"><path fill="#fff" d="M0 0h120v120H0z"/></clipPath></defs></svg><svg width="9" height="10" fill="none" viewBox="-2 -2 9 10" id="tear" x="339" y="214" xmlns="http://www.w3.org/2000/svg"><path d="M4.512 3.607a1.781 1.781 0 01-3.562 0c0-.984.602-2.96.602-2.96s2.96 1.976 2.96 2.96z" fill="#009FDF"/></svg></svg>