<svg width="24" height="18" viewBox="0 0 24 18" fill="none" xmlns="http://www.w3.org/2000/svg">
<path fill-rule="evenodd" clip-rule="evenodd" d="M24.0002 9.1C24.0002 5.6 23.4002 1.9 22.2002 1C20.8002 0 14.4002 0 12.0002 0C9.50022 0 3.40024 -3.57628e-07 2.00024 0.9C0.700243 1.7 0.000244141 5.6 0.000244141 9.1C0.100244 12.7 0.700243 16.2 2.00024 17.1C3.40024 18 9.50022 18 12.0002 18C14.4002 18 20.9002 18 22.2002 17C23.4002 16.1 24.0002 12.6 24.0002 9.1ZM9.00022 14.3V3.7L17.1002 9L9.00022 14.3Z" fill="#015684"/>
</svg>
